<svg width="69" height="81" viewBox="0 0 69 81" fill="none" xmlns="http://www.w3.org/2000/svg">
<path d="M34.1497 80.2374C52.8029 80.2374 67.9244 62.3596 67.9244 40.3062C67.9244 18.2528 52.8029 0.375 34.1497 0.375C15.4964 0.375 0.375 18.2528 0.375 40.3062C0.375 62.3596 15.4964 80.2374 34.1497 80.2374Z" stroke="#16335A" stroke-width="0.75" stroke-miterlimit="10"/>
<path d="M34.1497 77.0608C50.9691 77.0608 64.6039 60.6052 64.6039 40.3061C64.6039 20.0071 50.9691 3.55151 34.1497 3.55151C17.3303 3.55151 3.69543 20.0071 3.69543 40.3061C3.69543 60.6052 17.3303 77.0608 34.1497 77.0608Z" fill="#16335A"/>
<path d="M53.7667 17.7646L54.5408 33.0977H53.7667C52.7482 28.5161 51.2815 25.197 49.387 23.1811C47.4925 21.1652 45.211 20.1471 42.5628 20.1471C40.3424 20.1471 38.3257 20.9005 36.5331 22.4277C34.7405 23.9549 33.3145 26.3781 32.296 29.6972C31.2774 33.0163 30.7478 37.1499 30.7478 42.0981C30.7478 46.1706 31.2367 49.7137 32.2145 52.707C33.1923 55.7003 34.659 58.0013 36.5942 59.5896C38.5294 61.1779 40.7702 61.9924 43.2758 61.9924C45.4555 61.9924 47.3703 61.3611 49.0407 60.119C50.7111 58.8769 52.5445 56.3723 54.5408 52.6459L55.3149 53.3179C53.6241 57.3293 51.6685 60.2616 49.4278 62.1349C47.187 64.0083 44.5184 64.9246 41.4424 64.9246C35.8812 64.9246 31.583 62.1553 28.5274 56.6166C26.2459 52.483 25.1051 47.6367 25.1051 42.0573C25.1051 37.5572 25.8588 33.4235 27.3459 29.6565C28.8329 25.8894 30.9108 22.9571 33.5386 20.9005C36.1664 18.8439 39.0387 17.785 42.1554 17.785C44.5795 17.785 46.9629 18.5792 49.3259 20.1878C50.0185 20.6765 50.5074 20.9209 50.813 20.9209C51.2611 20.9209 51.6482 20.7172 51.9741 20.2896C52.4019 19.6991 52.7074 18.8642 52.8908 17.785H53.7463L53.7667 17.7646Z" fill="white"/>
<path d="M24.6773 60.2413C24.1069 59.549 23.8014 57.7775 23.8014 54.947V21.1043C25.4514 20.6767 26.7959 20.473 27.8552 20.473C29.4033 20.473 30.8089 20.8192 32.0515 21.4912C32.4386 21.1246 32.9682 20.6767 33.7016 20.1676C34.5979 19.516 35.2701 19.1495 35.7794 18.9255C33.6404 18.172 30.8089 17.7852 27.244 17.7852H11.8641V19.0273H13.4327C15.0216 19.0273 16.2235 19.516 17.0179 20.4934C17.5679 21.1857 17.8531 22.9573 17.8531 25.7877V54.9674C17.8531 57.5535 17.6494 59.1825 17.242 59.8544C16.4883 61.0966 15.2049 61.7278 13.4327 61.7278H11.8641V62.9699H29.8515V61.7278H28.2422C26.6533 61.7278 25.4718 61.2391 24.6773 60.2617V60.2413Z" fill="white"/>
<path d="M41.6054 23.2221C40.9943 22.4076 40.3017 21.6949 39.5683 21.084C38.8553 21.4709 37.5924 22.1632 36.7775 22.7944C36.0238 23.385 35.4738 24.0977 35.1886 24.566C35.3516 24.8714 35.5349 25.1565 35.6775 25.4823C36.4109 27.1521 36.7979 28.9643 36.7979 30.9192C36.7979 33.7699 36.0238 36.0709 34.4553 37.8628C33.0701 39.4511 31.42 40.3064 29.5663 40.4693V42.6481C30.0144 42.6684 30.4626 42.6888 30.8904 42.6888C35.0256 42.6888 38.2035 41.5281 40.4646 39.2271C42.7258 36.9261 43.8462 33.9125 43.8462 30.2268C43.8462 27.5186 43.1128 25.1769 41.6258 23.2017L41.6054 23.2221Z" fill="white"/>
</svg>
