<svg width="311" height="201" viewBox="0 0 311 201" fill="none" xmlns="http://www.w3.org/2000/svg">
<g clip-path="url(#clip0_39_2)">
<path d="M74.7809 200.776V200.532H75.1272C75.5142 200.532 75.779 200.409 75.942 200.165C76.0439 200.023 76.0846 199.676 76.0846 199.167V193.282C76.0846 192.712 76.0235 192.366 75.9013 192.224C75.7179 192.02 75.4735 191.918 75.1272 191.918H74.7809V191.674H78.4883C79.8532 191.674 80.8921 191.837 81.5847 192.142C82.2977 192.448 82.868 192.957 83.2958 193.69C83.7236 194.402 83.9477 195.237 83.9477 196.194C83.9477 197.457 83.5607 198.516 82.7866 199.371C81.931 200.328 80.6069 200.796 78.8346 200.796H74.7605L74.7809 200.776ZM77.3679 200.124C77.9383 200.247 78.4069 200.308 78.7939 200.308C79.8328 200.308 80.6884 199.941 81.381 199.208C82.0736 198.475 82.3995 197.498 82.3995 196.235C82.3995 194.973 82.0532 193.995 81.381 193.262C80.6884 192.529 79.8124 192.183 78.7328 192.183C78.3254 192.183 77.8772 192.244 77.3476 192.387V200.124H77.3679Z" fill="#16335A"/>
<path d="M93.5015 193.038V193.323C93.1959 193.323 92.9514 193.364 92.7885 193.425C92.6255 193.506 92.5033 193.588 92.4218 193.73C92.3403 193.853 92.2996 194.016 92.2792 194.178C92.2792 194.362 92.2588 194.545 92.2588 194.749V197.823C92.2588 198.129 92.2385 198.455 92.1977 198.76C92.157 199.086 92.0755 199.351 91.9533 199.554C91.7903 199.86 91.5662 200.104 91.3218 200.287C91.0773 200.47 90.8329 200.613 90.5681 200.715C90.3032 200.817 90.0384 200.898 89.794 200.918C89.5292 200.959 89.3051 200.98 89.081 200.98C87.981 200.98 87.1662 200.735 86.6161 200.246C86.0661 199.758 85.8013 199.045 85.8013 198.068V194.728C85.8013 194.484 85.8013 194.26 85.7606 194.077C85.7198 193.893 85.6791 193.751 85.5976 193.629C85.5161 193.506 85.3939 193.425 85.2106 193.364C85.0476 193.303 84.8235 193.282 84.5383 193.282V192.997H88.368V193.282C88.0828 193.282 87.8588 193.303 87.6958 193.364C87.5328 193.425 87.4106 193.506 87.3291 193.629C87.2476 193.751 87.1865 193.893 87.1662 194.077C87.1662 194.26 87.1458 194.484 87.1458 194.728V198.068C87.1458 198.068 87.1458 198.251 87.1458 198.393C87.1458 198.536 87.1662 198.699 87.2069 198.862C87.2476 199.025 87.3088 199.208 87.3902 199.391C87.4717 199.575 87.5939 199.737 87.7569 199.88C87.9199 200.023 88.1032 200.145 88.3477 200.246C88.5921 200.348 88.8773 200.389 89.2236 200.389C89.4069 200.389 89.5903 200.389 89.794 200.328C89.9977 200.287 90.181 200.247 90.3644 200.165C90.5477 200.084 90.731 200.002 90.894 199.88C91.057 199.758 91.1996 199.615 91.3014 199.452C91.4033 199.31 91.4644 199.167 91.5255 199.025C91.5866 198.882 91.6273 198.74 91.6477 198.597C91.6681 198.455 91.6885 198.312 91.7088 198.17C91.7088 198.027 91.7088 197.884 91.7088 197.722V194.402C91.7088 194.24 91.7088 194.077 91.6681 193.934C91.6477 193.792 91.5866 193.669 91.5051 193.568C91.4236 193.466 91.3014 193.384 91.1385 193.323C90.9959 193.262 90.7921 193.242 90.5273 193.242V192.957H93.4811L93.5015 193.038Z" fill="#16335A"/>
<path d="M99.8368 200.776L96.9849 197.192C96.9849 197.192 96.8423 197.192 96.8016 197.192C96.7609 197.192 96.6997 197.192 96.659 197.192C96.6183 197.192 96.5775 197.192 96.5164 197.192C96.4553 197.192 96.4146 197.192 96.3534 197.192V199.29C96.3534 199.595 96.3942 199.819 96.4757 199.982C96.5572 200.145 96.659 200.267 96.7609 200.348C96.8831 200.43 96.9849 200.471 97.1275 200.491C97.2498 200.491 97.372 200.491 97.4738 200.491V200.776H93.7664V200.491C94.0312 200.491 94.2553 200.471 94.4182 200.409C94.5812 200.348 94.7034 200.267 94.8053 200.165C94.8868 200.043 94.9479 199.9 94.9682 199.717C94.9886 199.534 95.009 199.33 95.009 199.066V194.728C95.009 194.484 95.009 194.26 94.9682 194.077C94.9479 193.893 94.8868 193.751 94.8053 193.629C94.7238 193.506 94.6016 193.425 94.4182 193.364C94.2553 193.303 94.0312 193.283 93.7664 193.283V192.997H97.1275C97.2905 192.997 97.4738 192.997 97.6775 192.997C97.8813 192.997 98.085 193.038 98.309 193.079C98.5127 193.12 98.7368 193.181 98.9405 193.262C99.1442 193.344 99.3683 193.445 99.5516 193.588C99.7554 193.73 99.9387 193.934 100.081 194.178C100.224 194.423 100.285 194.688 100.285 195.013C100.285 195.258 100.244 195.461 100.183 195.645C100.102 195.828 100.02 195.991 99.898 196.133C99.7757 196.276 99.6535 196.378 99.5109 196.479C99.3683 196.581 99.2257 196.642 99.0831 196.724C98.9405 196.785 98.8183 196.846 98.6961 196.866C98.5739 196.907 98.472 196.927 98.3905 196.948L100.407 199.452C100.529 199.595 100.652 199.737 100.754 199.839C100.855 199.961 100.978 200.043 101.079 200.124C101.181 200.206 101.304 200.267 101.446 200.328C101.568 200.389 101.711 200.43 101.874 200.45V200.735H99.8368V200.776ZM96.3331 196.785C96.3331 196.785 96.5368 196.785 96.6386 196.785C96.7405 196.785 96.8627 196.785 96.9849 196.785C97.1072 196.785 97.2498 196.744 97.372 196.703C97.5146 196.663 97.6572 196.602 97.7998 196.541C97.9627 196.459 98.085 196.378 98.2072 196.255C98.3294 196.133 98.4109 196.011 98.4924 195.889C98.5739 195.767 98.6146 195.624 98.6553 195.461C98.6961 195.319 98.7164 195.176 98.7164 195.054C98.7164 194.83 98.6757 194.606 98.5942 194.402C98.5127 194.199 98.4109 194.036 98.2683 193.893C98.1257 193.751 97.9627 193.629 97.759 193.547C97.5553 193.466 97.3312 193.425 97.0868 193.425C96.9442 193.425 96.8016 193.425 96.659 193.445C96.5164 193.466 96.4146 193.486 96.3127 193.486V196.765L96.3331 196.785Z" fill="#16335A"/>
<path d="M110.919 193.038V193.323C110.613 193.323 110.369 193.364 110.206 193.425C110.043 193.486 109.92 193.588 109.839 193.73C109.757 193.853 109.717 194.016 109.696 194.178C109.696 194.362 109.676 194.545 109.676 194.749V197.823C109.676 198.129 109.656 198.455 109.594 198.76C109.554 199.086 109.472 199.351 109.35 199.554C109.187 199.86 108.963 200.104 108.719 200.287C108.474 200.47 108.23 200.613 107.965 200.715C107.7 200.817 107.435 200.898 107.191 200.918C106.926 200.959 106.702 200.98 106.478 200.98C105.378 200.98 104.543 200.735 104.013 200.246C103.483 199.758 103.198 199.045 103.198 198.068V194.728C103.198 194.484 103.198 194.26 103.157 194.077C103.137 193.893 103.076 193.751 102.994 193.629C102.913 193.506 102.791 193.425 102.607 193.364C102.444 193.303 102.22 193.282 101.935 193.282V192.997H105.765V193.282C105.48 193.282 105.255 193.303 105.093 193.364C104.93 193.425 104.807 193.506 104.726 193.629C104.644 193.751 104.583 193.893 104.563 194.077C104.543 194.26 104.522 194.484 104.522 194.728V198.068C104.522 198.068 104.522 198.251 104.522 198.393C104.522 198.536 104.543 198.699 104.583 198.862C104.624 199.025 104.685 199.208 104.767 199.391C104.848 199.575 104.97 199.737 105.133 199.88C105.296 200.023 105.48 200.145 105.724 200.246C105.968 200.348 106.254 200.389 106.6 200.389C106.783 200.389 106.967 200.389 107.17 200.328C107.374 200.267 107.557 200.247 107.741 200.165C107.924 200.084 108.107 200.002 108.27 199.88C108.433 199.758 108.576 199.615 108.678 199.452C108.78 199.31 108.841 199.167 108.902 199.025C108.963 198.882 109.004 198.74 109.024 198.597C109.044 198.455 109.065 198.312 109.085 198.17C109.085 198.027 109.085 197.884 109.085 197.722V194.402C109.085 194.24 109.085 194.077 109.044 193.934C109.024 193.792 108.963 193.669 108.881 193.568C108.8 193.466 108.678 193.384 108.515 193.323C108.352 193.262 108.169 193.242 107.904 193.242V192.957H110.857L110.919 193.038Z" fill="#16335A"/>
<path d="M113.689 193.038L116.113 198.74L118.415 193.038H121.002V193.323C120.717 193.323 120.493 193.364 120.33 193.425C120.167 193.506 120.065 193.608 119.984 193.73C119.902 193.853 119.861 194.015 119.841 194.199C119.821 194.382 119.821 194.565 119.821 194.789V199.045C119.821 199.249 119.821 199.432 119.821 199.615C119.821 199.798 119.882 199.941 119.943 200.084C120.004 200.226 120.126 200.308 120.289 200.389C120.452 200.47 120.676 200.491 120.961 200.491V200.776H117.397V200.491C117.661 200.491 117.845 200.45 117.987 200.369C118.13 200.287 118.232 200.165 118.293 200.022C118.354 199.88 118.395 199.717 118.415 199.513C118.415 199.33 118.415 199.127 118.415 198.903V194.178H118.395L115.767 200.776H115.502L112.874 194.504H112.833V199.208C112.833 199.473 112.854 199.697 112.895 199.88C112.935 200.043 113.017 200.185 113.119 200.267C113.221 200.348 113.363 200.43 113.526 200.45C113.689 200.491 113.913 200.491 114.158 200.491V200.776H111.183V200.491C111.469 200.491 111.693 200.45 111.856 200.369C112.019 200.287 112.121 200.185 112.202 200.084C112.283 199.961 112.324 199.839 112.324 199.676C112.324 199.534 112.324 199.391 112.324 199.249V195.135C112.324 194.83 112.324 194.545 112.324 194.321C112.324 194.097 112.283 193.893 112.202 193.751C112.141 193.608 112.019 193.486 111.856 193.425C111.693 193.364 111.469 193.323 111.163 193.323V193.038H113.628H113.689Z" fill="#16335A"/>
<path d="M128.763 193.038C128.886 193.038 129.049 193.038 129.273 193.038C129.497 193.038 129.741 193.079 129.986 193.12C130.25 193.16 130.515 193.221 130.78 193.323C131.045 193.405 131.289 193.547 131.513 193.71C131.738 193.873 131.9 194.077 132.043 194.341C132.186 194.606 132.247 194.911 132.247 195.278C132.247 195.645 132.165 195.97 132.002 196.255C131.839 196.52 131.636 196.744 131.391 196.927C131.147 197.09 130.882 197.212 130.576 197.294C130.271 197.375 129.986 197.416 129.721 197.416C129.395 197.416 129.089 197.416 128.845 197.355C128.58 197.314 128.336 197.274 128.091 197.212V199.269C128.091 199.473 128.091 199.636 128.132 199.798C128.173 199.961 128.213 200.084 128.295 200.206C128.397 200.308 128.519 200.389 128.702 200.45C128.886 200.511 129.13 200.532 129.456 200.511V200.796H125.402V200.511C125.586 200.511 125.749 200.511 125.911 200.511C126.074 200.511 126.217 200.45 126.339 200.369C126.461 200.287 126.563 200.165 126.624 200.002C126.706 199.839 126.726 199.595 126.726 199.289V194.687C126.726 194.443 126.726 194.239 126.686 194.077C126.645 193.914 126.604 193.771 126.523 193.649C126.441 193.527 126.299 193.466 126.115 193.405C125.932 193.344 125.687 193.323 125.382 193.323V193.038H128.784H128.763ZM128.071 196.744C128.071 196.744 128.173 196.785 128.254 196.805C128.336 196.826 128.417 196.846 128.519 196.887C128.621 196.887 128.723 196.927 128.845 196.948C128.967 196.948 129.069 196.968 129.171 196.968C129.395 196.968 129.599 196.927 129.802 196.846C129.986 196.764 130.149 196.642 130.291 196.479C130.434 196.316 130.536 196.133 130.597 195.93C130.658 195.726 130.719 195.482 130.719 195.217C130.719 194.891 130.678 194.606 130.556 194.382C130.454 194.158 130.332 193.975 130.169 193.853C130.006 193.73 129.823 193.629 129.639 193.568C129.456 193.506 129.252 193.486 129.089 193.486C128.906 193.486 128.702 193.486 128.519 193.506C128.336 193.506 128.193 193.547 128.091 193.588V196.744H128.071Z" fill="#16335A"/>
<path d="M131.249 200.776V200.491C131.35 200.491 131.452 200.491 131.554 200.45C131.656 200.45 131.758 200.369 131.86 200.287C131.962 200.206 132.084 200.063 132.186 199.88C132.308 199.697 132.43 199.432 132.573 199.106L135.16 192.834H135.282L138.154 199.493C138.256 199.737 138.358 199.921 138.46 200.063C138.562 200.206 138.663 200.287 138.765 200.369C138.867 200.43 138.969 200.47 139.091 200.491C139.193 200.491 139.315 200.491 139.438 200.491V200.776H136.219V200.491C136.219 200.491 136.341 200.491 136.423 200.491C136.504 200.491 136.586 200.47 136.667 200.43C136.749 200.409 136.81 200.369 136.871 200.308C136.932 200.246 136.952 200.185 136.952 200.084C136.952 199.982 136.952 199.9 136.891 199.778C136.85 199.676 136.789 199.534 136.728 199.371L136.3 198.373H133.53L133.123 199.371C133.082 199.493 133.041 199.595 133.021 199.676C133.021 199.758 132.98 199.839 132.98 199.921C132.98 200.023 133 200.104 133.062 200.185C133.123 200.267 133.184 200.308 133.265 200.348C133.347 200.389 133.428 200.409 133.51 200.43C133.591 200.43 133.652 200.45 133.693 200.45V200.735H131.269L131.249 200.776ZM133.673 197.925H136.076L134.834 195.054L133.652 197.925H133.673Z" fill="#16335A"/>
<path d="M144.958 193.038L145.06 194.871H144.775C144.734 194.586 144.693 194.362 144.612 194.178C144.53 193.995 144.428 193.873 144.306 193.771C144.184 193.669 144.041 193.608 143.899 193.588C143.756 193.568 143.573 193.547 143.39 193.547H142.228V199.147C142.228 199.33 142.228 199.513 142.269 199.676C142.289 199.839 142.351 199.982 142.432 200.104C142.514 200.226 142.636 200.308 142.778 200.389C142.921 200.45 143.125 200.491 143.369 200.491V200.776H139.702V200.491C139.967 200.491 140.191 200.45 140.334 200.389C140.497 200.328 140.599 200.226 140.68 200.104C140.762 199.982 140.802 199.839 140.823 199.676C140.823 199.513 140.864 199.33 140.864 199.147V193.547H139.723C139.458 193.547 139.234 193.568 139.071 193.629C138.908 193.69 138.765 193.771 138.664 193.893C138.562 193.995 138.48 194.138 138.439 194.301C138.399 194.463 138.358 194.647 138.358 194.871H138.073L138.175 193.038H144.938H144.958Z" fill="#16335A"/>
<path d="M151.904 193.038L151.986 194.871H151.701C151.68 194.525 151.599 194.239 151.477 194.056C151.354 193.873 151.191 193.73 151.028 193.629C150.845 193.547 150.662 193.486 150.458 193.466C150.254 193.466 150.071 193.445 149.888 193.445H148.238V196.52H149.765C150.071 196.52 150.315 196.479 150.478 196.418C150.641 196.357 150.764 196.255 150.845 196.133C150.927 196.011 150.967 195.889 150.967 195.746C150.967 195.604 150.967 195.441 150.967 195.298H151.253V198.149H150.967C150.967 197.966 150.967 197.783 150.927 197.64C150.906 197.498 150.845 197.355 150.764 197.253C150.682 197.151 150.54 197.07 150.377 197.009C150.214 196.948 149.969 196.927 149.664 196.927H148.217V199.513C148.217 199.676 148.217 199.798 148.217 199.921C148.217 200.022 148.258 200.124 148.319 200.185C148.38 200.267 148.462 200.308 148.584 200.348C148.706 200.389 148.869 200.389 149.093 200.389H149.745C150.01 200.389 150.254 200.389 150.478 200.328C150.703 200.287 150.906 200.226 151.09 200.104C151.273 199.982 151.456 199.839 151.599 199.615C151.762 199.412 151.904 199.127 152.047 198.76H152.332L151.864 200.776H145.895V200.491C146.139 200.491 146.343 200.45 146.465 200.369C146.608 200.287 146.689 200.185 146.771 200.063C146.852 199.941 146.873 199.798 146.873 199.656C146.873 199.513 146.873 199.371 146.873 199.228V194.545C146.873 194.362 146.873 194.178 146.852 194.036C146.852 193.893 146.791 193.751 146.73 193.649C146.669 193.547 146.567 193.466 146.425 193.405C146.282 193.344 146.119 193.323 145.895 193.323V193.038H151.925H151.904Z" fill="#16335A"/>
<path d="M154.96 193.038L160.195 198.638V194.749C160.195 194.504 160.195 194.28 160.134 194.097C160.073 193.914 160.032 193.771 159.951 193.649C159.869 193.527 159.727 193.445 159.564 193.384C159.401 193.323 159.197 193.303 158.932 193.303V193.018H161.825V193.303C161.662 193.303 161.499 193.303 161.356 193.323C161.214 193.344 161.092 193.384 160.99 193.466C160.888 193.547 160.806 193.649 160.766 193.792C160.725 193.934 160.684 194.138 160.684 194.362V200.735H160.419L154.797 194.626V199.025C154.797 199.269 154.797 199.493 154.838 199.656C154.858 199.839 154.919 199.982 155.021 200.104C155.123 200.226 155.245 200.308 155.408 200.369C155.571 200.43 155.795 200.45 156.08 200.45V200.735H153.127V200.45C153.432 200.45 153.656 200.409 153.819 200.348C153.982 200.287 154.084 200.185 154.166 200.043C154.247 199.921 154.288 199.758 154.288 199.575C154.288 199.391 154.288 199.188 154.288 198.943V194.097C154.104 193.914 153.962 193.771 153.84 193.649C153.717 193.547 153.595 193.445 153.493 193.405C153.392 193.364 153.269 193.303 153.167 193.282C153.066 193.282 152.943 193.262 152.801 193.262V192.977H154.94L154.96 193.038Z" fill="#16335A"/>
<path d="M169.281 193.038L169.383 194.871H169.097C169.077 194.586 169.016 194.362 168.934 194.178C168.853 194.015 168.751 193.873 168.629 193.771C168.507 193.669 168.364 193.608 168.221 193.588C168.079 193.568 167.895 193.547 167.712 193.547H166.551V199.147C166.551 199.33 166.551 199.513 166.592 199.676C166.612 199.839 166.673 199.982 166.755 200.104C166.836 200.226 166.958 200.308 167.101 200.389C167.244 200.45 167.447 200.491 167.692 200.491V200.776H164.005V200.491C164.269 200.491 164.494 200.45 164.636 200.389C164.779 200.328 164.901 200.226 164.982 200.104C165.064 199.982 165.105 199.839 165.125 199.676C165.145 199.513 165.166 199.33 165.166 199.147V193.547H164.025C163.76 193.547 163.536 193.568 163.373 193.629C163.21 193.69 163.068 193.771 162.966 193.893C162.864 193.995 162.782 194.138 162.742 194.301C162.701 194.463 162.66 194.647 162.66 194.871H162.375L162.477 193.038H169.26H169.281Z" fill="#16335A"/>
<path d="M173.64 200.776H170.075V200.491C170.32 200.491 170.523 200.471 170.666 200.409C170.809 200.348 170.931 200.267 170.992 200.165C171.073 200.063 171.114 199.921 171.134 199.758C171.155 199.595 171.175 199.412 171.175 199.208V194.647C171.175 194.484 171.175 194.321 171.175 194.158C171.175 193.995 171.114 193.853 171.053 193.731C170.992 193.608 170.87 193.507 170.727 193.425C170.584 193.344 170.36 193.303 170.075 193.303V193.018H173.64V193.303C173.355 193.303 173.151 193.344 173.009 193.425C172.866 193.507 172.744 193.608 172.683 193.731C172.601 193.853 172.56 193.995 172.56 194.158C172.56 194.321 172.56 194.484 172.56 194.647V199.208C172.56 199.412 172.56 199.615 172.601 199.758C172.622 199.921 172.683 200.063 172.744 200.165C172.825 200.267 172.927 200.348 173.09 200.409C173.233 200.471 173.436 200.491 173.681 200.491V200.776H173.64Z" fill="#16335A"/>
<path d="M174.047 200.776V200.491C174.149 200.491 174.251 200.491 174.353 200.45C174.455 200.45 174.557 200.369 174.658 200.287C174.76 200.206 174.883 200.063 174.984 199.88C175.107 199.697 175.229 199.432 175.371 199.106L177.959 192.834H178.081L180.953 199.493C181.055 199.737 181.157 199.921 181.259 200.063C181.36 200.206 181.462 200.287 181.564 200.369C181.666 200.43 181.768 200.47 181.87 200.491C181.972 200.491 182.094 200.491 182.216 200.491V200.776H178.997V200.491C178.997 200.491 179.12 200.491 179.201 200.491C179.283 200.491 179.364 200.47 179.446 200.43C179.527 200.409 179.588 200.369 179.649 200.308C179.71 200.246 179.731 200.185 179.731 200.084C179.731 199.982 179.731 199.9 179.67 199.778C179.629 199.676 179.568 199.534 179.507 199.371L179.079 198.373H176.309L175.881 199.371C175.84 199.493 175.799 199.595 175.779 199.676C175.779 199.758 175.758 199.839 175.758 199.921C175.758 200.023 175.779 200.104 175.84 200.185C175.901 200.267 175.962 200.308 176.044 200.348C176.125 200.389 176.207 200.409 176.288 200.43C176.37 200.43 176.431 200.45 176.471 200.45V200.735H174.047V200.776ZM176.451 197.925H178.855L177.612 195.054L176.431 197.925H176.451Z" fill="#16335A"/>
<path d="M192.911 194.891H192.605C192.585 194.647 192.544 194.423 192.503 194.24C192.442 194.056 192.361 193.914 192.259 193.792C192.157 193.669 191.994 193.588 191.811 193.527C191.627 193.466 191.383 193.445 191.118 193.445H189.122V196.459H190.364C190.568 196.459 190.751 196.459 190.894 196.418C191.037 196.418 191.159 196.337 191.281 196.276C191.383 196.194 191.464 196.072 191.526 195.909C191.587 195.746 191.607 195.522 191.648 195.258H191.933V198.149H191.648C191.648 197.925 191.607 197.722 191.566 197.579C191.526 197.416 191.464 197.294 191.363 197.192C191.261 197.09 191.118 197.029 190.955 196.988C190.772 196.948 190.548 196.927 190.263 196.927H189.163V198.984C189.163 199.228 189.163 199.432 189.183 199.636C189.203 199.839 189.244 199.982 189.326 200.124C189.407 200.267 189.509 200.348 189.672 200.43C189.835 200.491 190.059 200.532 190.344 200.532V200.817H186.575V200.532C186.861 200.532 187.105 200.511 187.268 200.45C187.431 200.389 187.553 200.308 187.635 200.185C187.716 200.063 187.777 199.921 187.798 199.737C187.798 199.554 187.818 199.351 187.818 199.106V194.769C187.818 194.565 187.818 194.362 187.798 194.199C187.798 194.016 187.737 193.873 187.655 193.751C187.574 193.629 187.451 193.527 187.288 193.466C187.125 193.405 186.881 193.364 186.575 193.364V193.079H192.87L192.972 194.912L192.911 194.891Z" fill="#16335A"/>
<path d="M199.389 200.776L196.537 197.192C196.537 197.192 196.394 197.192 196.353 197.192C196.313 197.192 196.251 197.192 196.211 197.192C196.17 197.192 196.109 197.192 196.068 197.192C196.027 197.192 195.966 197.192 195.905 197.192V199.29C195.905 199.595 195.946 199.819 196.027 199.982C196.109 200.145 196.19 200.267 196.313 200.348C196.435 200.43 196.557 200.471 196.679 200.491C196.802 200.491 196.924 200.491 197.026 200.491V200.776H193.318V200.491C193.583 200.491 193.807 200.471 193.97 200.409C194.133 200.348 194.255 200.267 194.357 200.165C194.439 200.043 194.5 199.9 194.52 199.717C194.54 199.534 194.561 199.33 194.561 199.066V194.728C194.561 194.484 194.561 194.26 194.52 194.077C194.5 193.893 194.439 193.751 194.357 193.629C194.276 193.506 194.153 193.425 193.97 193.364C193.807 193.303 193.583 193.283 193.318 193.283V192.997H196.679C196.842 192.997 197.026 192.997 197.229 192.997C197.433 192.997 197.637 193.038 197.861 193.079C198.064 193.12 198.289 193.181 198.513 193.262C198.737 193.344 198.94 193.445 199.124 193.588C199.327 193.73 199.511 193.934 199.653 194.178C199.796 194.423 199.857 194.688 199.857 195.013C199.857 195.258 199.816 195.461 199.755 195.645C199.694 195.828 199.592 195.991 199.47 196.133C199.348 196.276 199.226 196.378 199.083 196.479C198.94 196.581 198.798 196.642 198.655 196.724C198.513 196.785 198.39 196.846 198.248 196.866C198.126 196.907 198.024 196.927 197.942 196.948L199.959 199.452C200.081 199.595 200.203 199.737 200.305 199.839C200.407 199.961 200.529 200.043 200.631 200.124C200.753 200.206 200.855 200.267 200.998 200.328C201.12 200.389 201.263 200.43 201.426 200.45V200.735H199.389V200.776ZM195.885 196.785C195.885 196.785 196.089 196.785 196.19 196.785C196.292 196.785 196.414 196.785 196.537 196.785C196.659 196.785 196.802 196.744 196.944 196.703C197.087 196.663 197.229 196.602 197.372 196.541C197.535 196.459 197.657 196.378 197.779 196.255C197.902 196.133 197.983 196.011 198.065 195.889C198.146 195.767 198.187 195.624 198.227 195.461C198.268 195.319 198.289 195.176 198.289 195.054C198.289 194.83 198.248 194.606 198.166 194.402C198.085 194.199 197.983 194.036 197.84 193.893C197.698 193.751 197.535 193.629 197.331 193.547C197.127 193.466 196.903 193.425 196.659 193.425C196.516 193.425 196.374 193.425 196.231 193.445C196.089 193.445 195.987 193.486 195.885 193.486V196.765V196.785Z" fill="#16335A"/>
<path d="M201.507 200.776V200.491C201.609 200.491 201.711 200.491 201.813 200.45C201.915 200.45 202.017 200.369 202.118 200.287C202.22 200.206 202.343 200.063 202.444 199.88C202.567 199.697 202.689 199.432 202.831 199.106L205.419 192.834H205.541L208.413 199.493C208.515 199.737 208.617 199.921 208.719 200.063C208.82 200.206 208.922 200.287 209.024 200.369C209.126 200.43 209.228 200.47 209.33 200.491C209.432 200.491 209.554 200.491 209.676 200.491V200.776H206.457V200.491C206.457 200.491 206.58 200.491 206.661 200.491C206.743 200.491 206.824 200.47 206.906 200.43C206.987 200.409 207.048 200.369 207.109 200.308C207.17 200.246 207.191 200.185 207.191 200.084C207.191 199.982 207.191 199.9 207.13 199.778C207.089 199.676 207.028 199.534 206.967 199.371L206.539 198.373H203.768L203.341 199.371C203.3 199.493 203.259 199.595 203.239 199.676C203.239 199.758 203.218 199.839 203.218 199.921C203.218 200.023 203.239 200.104 203.3 200.185C203.361 200.267 203.422 200.308 203.504 200.348C203.585 200.389 203.667 200.409 203.748 200.43C203.83 200.43 203.891 200.45 203.931 200.45V200.735H201.507V200.776ZM203.911 197.925H206.315L205.072 195.054L203.891 197.925H203.911Z" fill="#16335A"/>
<path d="M212.039 193.038L217.274 198.638V194.749C217.274 194.504 217.274 194.28 217.213 194.097C217.152 193.914 217.111 193.771 217.03 193.649C216.948 193.527 216.806 193.445 216.643 193.384C216.48 193.323 216.276 193.303 216.011 193.303V193.018H218.904V193.303C218.741 193.303 218.578 193.303 218.435 193.323C218.293 193.344 218.171 193.384 218.069 193.466C217.967 193.547 217.885 193.649 217.845 193.792C217.804 193.934 217.763 194.138 217.763 194.362V200.735H217.498L211.876 194.626V199.025C211.876 199.269 211.876 199.493 211.917 199.656C211.937 199.839 211.998 199.982 212.1 200.104C212.182 200.226 212.324 200.308 212.487 200.369C212.65 200.43 212.874 200.45 213.159 200.45V200.735H210.206V200.45C210.511 200.45 210.735 200.409 210.898 200.348C211.061 200.287 211.163 200.185 211.244 200.043C211.326 199.921 211.367 199.758 211.367 199.575C211.367 199.391 211.367 199.188 211.367 198.943V194.097C211.204 193.914 211.041 193.771 210.919 193.649C210.796 193.547 210.674 193.445 210.572 193.405C210.47 193.344 210.348 193.303 210.246 193.282C210.144 193.282 210.022 193.262 209.88 193.262V192.977H212.019L212.039 193.038Z" fill="#16335A"/>
<path d="M227.093 195.583H226.808C226.808 195.583 226.726 195.38 226.685 195.258C226.645 195.156 226.604 195.034 226.543 194.911C226.482 194.789 226.421 194.687 226.339 194.565C226.258 194.443 226.156 194.341 226.054 194.219C225.911 194.077 225.748 193.954 225.585 193.832C225.422 193.71 225.239 193.629 225.056 193.547C224.872 193.466 224.689 193.405 224.485 193.364C224.282 193.323 224.098 193.303 223.915 193.303C223.528 193.303 223.161 193.384 222.835 193.547C222.509 193.71 222.224 193.954 221.98 194.26C221.735 194.565 221.552 194.952 221.43 195.38C221.308 195.828 221.226 196.316 221.226 196.866C221.226 197.355 221.267 197.803 221.369 198.17C221.47 198.536 221.572 198.862 221.735 199.127C221.898 199.391 222.061 199.615 222.245 199.778C222.448 199.941 222.652 200.084 222.856 200.185C223.059 200.287 223.283 200.348 223.487 200.389C223.691 200.43 223.895 200.45 224.058 200.45C224.363 200.45 224.669 200.389 224.995 200.287C225.321 200.185 225.626 200.002 225.932 199.737C226.054 199.636 226.176 199.513 226.258 199.412C226.339 199.31 226.441 199.208 226.502 199.106C226.563 199.004 226.645 198.882 226.706 198.78C226.767 198.658 226.828 198.536 226.909 198.414L227.174 198.577C227.174 198.577 227.072 198.78 227.011 198.923C226.93 199.065 226.848 199.249 226.726 199.432C226.604 199.615 226.461 199.799 226.278 199.982C226.095 200.165 225.891 200.328 225.646 200.491C225.402 200.633 225.117 200.756 224.791 200.857C224.465 200.959 224.119 201 223.711 201C223.182 201 222.672 200.898 222.204 200.715C221.715 200.532 221.287 200.246 220.92 199.9C220.554 199.554 220.248 199.127 220.024 198.638C219.8 198.149 219.698 197.62 219.698 197.029C219.698 196.439 219.8 195.889 220.024 195.38C220.248 194.871 220.533 194.423 220.9 194.056C221.267 193.69 221.695 193.384 222.183 193.16C222.672 192.936 223.202 192.834 223.752 192.834C224.159 192.834 224.485 192.875 224.75 192.957C225.015 193.038 225.239 193.12 225.422 193.201C225.545 193.262 225.646 193.303 225.728 193.323C225.809 193.344 225.871 193.384 225.911 193.405C225.952 193.425 225.993 193.425 226.013 193.445C226.034 193.445 226.074 193.445 226.095 193.445C226.095 193.445 226.156 193.445 226.197 193.445C226.237 193.445 226.278 193.405 226.339 193.364C226.38 193.323 226.421 193.262 226.461 193.181C226.502 193.099 226.522 192.977 226.543 192.834H226.808L227.093 195.563V195.583Z" fill="#16335A"/>
<path d="M228.295 196.785C228.295 196.235 228.397 195.726 228.58 195.258C228.784 194.789 229.049 194.362 229.395 194.016C229.741 193.669 230.169 193.384 230.637 193.181C231.126 192.977 231.656 192.875 232.226 192.875C232.797 192.875 233.347 192.977 233.836 193.181C234.325 193.384 234.752 193.669 235.099 194.036C235.445 194.402 235.71 194.83 235.913 195.339C236.117 195.848 236.199 196.378 236.199 196.968C236.199 197.559 236.097 198.068 235.893 198.556C235.689 199.045 235.425 199.493 235.078 199.839C234.732 200.206 234.304 200.491 233.836 200.695C233.347 200.898 232.817 201 232.247 201C231.982 201 231.697 200.98 231.412 200.918C231.106 200.857 230.821 200.776 230.515 200.654C230.23 200.532 229.945 200.348 229.66 200.145C229.395 199.941 229.15 199.676 228.947 199.351C228.743 199.045 228.58 198.679 228.458 198.251C228.336 197.823 228.274 197.335 228.274 196.785H228.295ZM229.843 196.887C229.843 196.989 229.843 197.151 229.843 197.375C229.843 197.599 229.884 197.844 229.924 198.129C229.965 198.414 230.047 198.679 230.128 198.984C230.23 199.269 230.373 199.534 230.536 199.778C230.699 200.023 230.943 200.206 231.228 200.369C231.513 200.532 231.839 200.593 232.247 200.593C232.654 200.593 233 200.511 233.265 200.369C233.55 200.206 233.775 200.023 233.958 199.778C234.141 199.534 234.284 199.269 234.386 198.984C234.487 198.699 234.549 198.414 234.589 198.129C234.63 197.864 234.671 197.62 234.671 197.396C234.671 197.172 234.671 197.009 234.671 196.907C234.671 196.724 234.671 196.52 234.671 196.255C234.671 195.991 234.63 195.746 234.569 195.482C234.508 195.217 234.447 194.952 234.325 194.688C234.223 194.423 234.08 194.178 233.897 193.975C233.713 193.771 233.489 193.588 233.225 193.466C232.96 193.344 232.634 193.262 232.247 193.262C231.9 193.262 231.595 193.323 231.35 193.425C231.106 193.527 230.882 193.69 230.699 193.873C230.515 194.056 230.373 194.28 230.25 194.525C230.128 194.769 230.047 195.034 229.986 195.298C229.924 195.563 229.884 195.848 229.843 196.113C229.823 196.378 229.802 196.642 229.802 196.887H229.843Z" fill="#16335A"/>
<path d="M94.3164 104.603V113.033C94.3164 114.866 94.5202 115.986 94.9072 116.434C95.4572 117.065 96.272 117.37 97.3721 117.37H98.4924V118.165H86.0867V117.37H87.1867C88.4089 117.37 89.2849 116.963 89.8145 116.169C90.0997 115.721 90.2423 114.683 90.2423 113.033V94.3199C90.2423 92.4872 90.059 91.3673 89.6719 90.9193C89.1219 90.2881 88.2867 89.9826 87.1867 89.9826H86.0867V89.1885H96.6998C99.2869 89.1885 101.344 89.4532 102.831 89.9826C104.318 90.512 105.581 91.408 106.62 92.6909C107.639 93.9533 108.169 95.4602 108.169 97.191C108.169 99.5531 107.394 101.467 105.826 102.954C104.257 104.44 102.057 105.173 99.2054 105.173C98.5128 105.173 97.7591 105.132 96.9443 105.031C96.1294 104.929 95.2535 104.786 94.3368 104.583L94.3164 104.603ZM94.3164 103.381C95.0702 103.524 95.7424 103.626 96.3332 103.707C96.9239 103.789 97.4128 103.809 97.8202 103.809C99.3073 103.809 100.57 103.239 101.65 102.098C102.73 100.958 103.259 99.4716 103.259 97.639C103.259 96.3765 102.994 95.2158 102.485 94.1366C101.976 93.0574 101.243 92.2632 100.305 91.7135C99.3684 91.1637 98.2887 90.9193 97.1072 90.9193C96.3739 90.9193 95.4572 91.0618 94.3164 91.3266V103.381Z" fill="#16335A"/>
<path d="M119.047 97.924C118.171 97.924 117.498 98.0055 117.01 98.148C116.521 98.2906 116.174 98.5349 115.95 98.8403C115.726 99.1458 115.584 99.5327 115.543 100.021C115.502 100.51 115.482 101.08 115.482 101.752V115.008C115.482 115.334 115.482 115.619 115.502 115.843C115.502 116.088 115.584 116.271 115.665 116.413C115.767 116.556 115.91 116.658 116.134 116.719C116.358 116.78 116.643 116.821 117.03 116.821H121.511C121.858 116.821 122.245 116.8 122.693 116.739C123.141 116.698 123.63 116.515 124.139 116.23C124.649 115.945 125.178 115.497 125.728 114.886C126.278 114.275 126.808 113.42 127.338 112.3H128.112L126.258 118.144H108.78V117.37C109.534 117.37 110.124 117.269 110.511 117.045C110.919 116.821 111.224 116.556 111.408 116.23C111.591 115.904 111.713 115.517 111.734 115.09C111.754 114.662 111.774 114.255 111.774 113.848V101.487C111.774 101.019 111.774 100.571 111.734 100.123C111.713 99.6956 111.591 99.3087 111.408 98.9625C111.224 98.6367 110.919 98.372 110.511 98.1684C110.104 97.9851 109.534 97.8833 108.78 97.8833V97.1299H119.087V97.8833L119.047 97.924Z" fill="#16335A"/>
<path d="M128.6 107.291C128.6 105.804 128.865 104.42 129.395 103.117C129.924 101.813 130.658 100.693 131.615 99.716C132.573 98.7386 133.693 97.9851 134.997 97.4353C136.3 96.8855 137.747 96.6005 139.315 96.6005C140.884 96.6005 142.371 96.8855 143.695 97.4353C145.019 98.0055 146.16 98.7793 147.097 99.777C148.054 100.775 148.788 101.956 149.317 103.3C149.847 104.644 150.112 106.13 150.112 107.718C150.112 109.307 149.847 110.691 149.317 112.035C148.788 113.379 148.034 114.54 147.097 115.538C146.14 116.536 145.019 117.309 143.715 117.879C142.412 118.45 140.965 118.735 139.417 118.735C138.704 118.735 137.951 118.653 137.136 118.511C136.321 118.368 135.526 118.103 134.712 117.757C133.917 117.411 133.143 116.943 132.41 116.373C131.676 115.802 131.024 115.09 130.474 114.235C129.904 113.379 129.456 112.382 129.13 111.241C128.804 110.081 128.621 108.757 128.621 107.271L128.6 107.291ZM132.776 107.596C132.776 107.881 132.776 108.329 132.817 108.94C132.837 109.551 132.919 110.223 133.041 110.977C133.163 111.73 133.347 112.483 133.612 113.278C133.876 114.072 134.243 114.784 134.732 115.436C135.221 116.088 135.832 116.617 136.586 117.045C137.339 117.472 138.276 117.676 139.356 117.676C140.436 117.676 141.373 117.472 142.126 117.045C142.88 116.617 143.512 116.088 144.001 115.436C144.49 114.784 144.877 114.072 145.141 113.278C145.406 112.483 145.59 111.73 145.712 110.977C145.834 110.243 145.895 109.571 145.915 108.961C145.936 108.35 145.956 107.922 145.956 107.637C145.956 107.148 145.956 106.578 145.895 105.886C145.854 105.194 145.773 104.501 145.63 103.768C145.488 103.035 145.264 102.302 144.999 101.589C144.714 100.877 144.327 100.225 143.838 99.6549C143.349 99.0847 142.758 98.6164 142.025 98.2702C141.291 97.924 140.415 97.7408 139.397 97.7408C138.46 97.7408 137.645 97.8833 136.952 98.1888C136.26 98.4942 135.669 98.9014 135.18 99.4105C134.691 99.9196 134.284 100.51 133.978 101.182C133.673 101.854 133.428 102.546 133.245 103.279C133.062 104.012 132.939 104.746 132.878 105.499C132.817 106.252 132.776 106.965 132.776 107.617V107.596Z" fill="#16335A"/>
<path d="M174.434 97.1706V97.9241C173.599 97.9241 172.968 98.0259 172.52 98.2091C172.071 98.3924 171.725 98.6775 171.501 99.0236C171.277 99.3698 171.155 99.7771 171.114 100.266C171.073 100.734 171.053 101.264 171.053 101.834V110.162C171.053 110.997 170.992 111.852 170.87 112.707C170.747 113.563 170.523 114.296 170.177 114.866C169.708 115.68 169.138 116.332 168.486 116.841C167.834 117.35 167.142 117.737 166.429 118.022C165.716 118.307 165.003 118.49 164.31 118.592C163.618 118.694 162.966 118.735 162.395 118.735C159.401 118.735 157.18 118.083 155.693 116.76C154.227 115.436 153.473 113.481 153.473 110.875V101.793C153.473 101.101 153.432 100.53 153.371 100.021C153.29 99.5327 153.147 99.1255 152.903 98.7997C152.658 98.4739 152.332 98.2499 151.884 98.087C151.436 97.9444 150.825 97.863 150.071 97.863V97.1095H160.48V97.863C159.706 97.863 159.095 97.9444 158.647 98.087C158.199 98.2295 157.853 98.4738 157.629 98.7793C157.405 99.0847 157.262 99.492 157.201 99.9807C157.14 100.469 157.119 101.06 157.119 101.773V110.854C157.119 111.038 157.119 111.323 157.14 111.71C157.14 112.096 157.221 112.524 157.323 112.992C157.425 113.461 157.588 113.949 157.832 114.438C158.056 114.927 158.382 115.375 158.81 115.782C159.238 116.189 159.768 116.515 160.419 116.78C161.071 117.045 161.866 117.167 162.823 117.167C163.312 117.167 163.821 117.126 164.371 117.024C164.921 116.922 165.431 116.78 165.94 116.597C166.449 116.413 166.918 116.149 167.366 115.843C167.814 115.538 168.181 115.151 168.486 114.683C168.751 114.296 168.955 113.909 169.097 113.522C169.26 113.135 169.362 112.748 169.444 112.361C169.525 111.974 169.566 111.587 169.586 111.18C169.607 110.793 169.627 110.386 169.627 109.979V100.958C169.627 100.51 169.586 100.082 169.505 99.6956C169.423 99.3087 169.26 98.9829 169.036 98.6978C168.812 98.4128 168.486 98.2091 168.058 98.0462C167.651 97.8833 167.101 97.8019 166.408 97.8019V97.0485H174.414L174.434 97.1706Z" fill="#16335A"/>
<path d="M192.524 97.1707L192.829 102.16H192.076C191.994 101.386 191.831 100.754 191.628 100.286C191.424 99.8178 191.139 99.4513 190.813 99.1866C190.487 98.9218 190.12 98.7589 189.692 98.6775C189.265 98.596 188.816 98.5553 188.327 98.5553H185.17V113.766C185.17 114.296 185.211 114.784 185.292 115.232C185.374 115.68 185.516 116.067 185.761 116.393C185.985 116.719 186.311 116.963 186.718 117.146C187.126 117.33 187.676 117.411 188.348 117.411V118.185H178.366V117.411C179.1 117.411 179.67 117.33 180.077 117.146C180.505 116.963 180.811 116.719 181.035 116.393C181.238 116.067 181.381 115.68 181.442 115.232C181.503 114.784 181.524 114.296 181.524 113.766V98.5553H178.407C177.674 98.5553 177.083 98.6368 176.614 98.7997C176.146 98.9626 175.779 99.1866 175.494 99.492C175.209 99.7974 175.005 100.184 174.883 100.632C174.761 101.08 174.679 101.589 174.638 102.18H173.864L174.149 97.191H192.524V97.1707Z" fill="#16335A"/>
<path d="M188.816 118.165V117.391C189.101 117.391 189.387 117.35 189.651 117.289C189.916 117.248 190.201 117.085 190.487 116.841C190.772 116.597 191.077 116.23 191.383 115.721C191.689 115.232 192.055 114.52 192.422 113.603L199.429 96.5801H199.776L207.557 114.642C207.843 115.293 208.128 115.802 208.393 116.169C208.657 116.536 208.943 116.8 209.207 116.983C209.493 117.167 209.778 117.269 210.063 117.309C210.348 117.35 210.674 117.37 211 117.37V118.144H202.261V117.37C202.404 117.37 202.587 117.37 202.811 117.33C203.035 117.309 203.259 117.269 203.483 117.187C203.707 117.126 203.891 117.004 204.033 116.861C204.196 116.719 204.278 116.515 204.278 116.25C204.278 116.006 204.217 115.741 204.115 115.436C204.013 115.13 203.85 114.764 203.646 114.336L202.465 111.628H194.948L193.807 114.336C193.685 114.662 193.583 114.947 193.522 115.171C193.461 115.416 193.44 115.64 193.44 115.864C193.44 116.149 193.522 116.393 193.665 116.576C193.807 116.759 193.99 116.922 194.215 117.024C194.439 117.126 194.642 117.207 194.846 117.269C195.07 117.309 195.233 117.35 195.355 117.35V118.124H188.796L188.816 118.165ZM195.376 110.386H201.915L198.553 102.607L195.376 110.386Z" fill="#16335A"/>
<path d="M223.508 103.503H222.733C222.591 102.893 222.387 102.261 222.122 101.61C221.858 100.958 221.409 100.266 220.819 99.5531C220.309 98.9422 219.739 98.4942 219.087 98.1888C218.435 97.8833 217.804 97.7408 217.213 97.7408C216.724 97.7408 216.317 97.8222 215.95 97.9648C215.583 98.1073 215.298 98.3109 215.054 98.5553C214.809 98.7996 214.626 99.0847 214.504 99.4309C214.381 99.7567 214.32 100.103 214.32 100.449C214.32 100.999 214.443 101.508 214.687 101.956C214.931 102.404 215.298 102.852 215.746 103.259C216.194 103.666 216.765 104.094 217.417 104.501C218.069 104.908 218.802 105.356 219.617 105.825C220.289 106.212 220.941 106.639 221.572 107.087C222.204 107.535 222.774 108.044 223.263 108.614C223.752 109.185 224.159 109.795 224.445 110.467C224.73 111.139 224.893 111.893 224.893 112.748C224.893 113.379 224.771 114.031 224.526 114.744C224.282 115.436 223.874 116.088 223.345 116.678C222.815 117.269 222.122 117.757 221.267 118.144C220.411 118.531 219.413 118.735 218.252 118.735C217.702 118.735 217.213 118.674 216.744 118.572C216.276 118.45 215.848 118.327 215.461 118.205C215.054 118.083 214.687 117.961 214.361 117.839C214.035 117.717 213.709 117.676 213.424 117.676C213.159 117.676 212.956 117.717 212.772 117.798C212.589 117.879 212.446 117.961 212.324 118.083C212.202 118.185 212.1 118.307 212.018 118.429C211.937 118.551 211.876 118.653 211.815 118.755H211.061V111.669H211.815C212.018 112.626 212.304 113.44 212.67 114.092C213.017 114.764 213.404 115.293 213.831 115.721C214.239 116.149 214.667 116.474 215.074 116.719C215.502 116.963 215.889 117.126 216.256 117.228C216.622 117.33 216.928 117.391 217.193 117.411C217.457 117.431 217.62 117.452 217.702 117.452C218.211 117.452 218.72 117.391 219.209 117.248C219.698 117.106 220.126 116.902 220.493 116.637C220.859 116.373 221.165 116.026 221.389 115.599C221.613 115.171 221.735 114.683 221.735 114.092C221.735 113.603 221.633 113.155 221.409 112.728C221.185 112.3 220.88 111.872 220.472 111.465C220.065 111.038 219.576 110.63 218.985 110.223C218.394 109.816 217.743 109.388 216.989 108.94C216.276 108.533 215.583 108.105 214.891 107.657C214.198 107.209 213.567 106.721 213.017 106.191C212.467 105.662 212.018 105.051 211.672 104.399C211.326 103.727 211.163 102.974 211.163 102.098C211.163 101.386 211.285 100.693 211.53 100.042C211.774 99.3698 212.141 98.7996 212.65 98.2906C213.159 97.7815 213.75 97.3742 214.483 97.0892C215.217 96.8041 216.072 96.6412 217.03 96.6412C217.6 96.6412 218.109 96.6819 218.537 96.7837C218.985 96.8855 219.372 96.9874 219.719 97.1095C220.065 97.2317 220.37 97.3335 220.635 97.4353C220.9 97.5371 221.165 97.5779 221.409 97.5779C221.735 97.5779 221.98 97.4964 222.163 97.3132C222.346 97.1299 222.489 96.9059 222.652 96.6005H223.467V103.503H223.508Z" fill="#16335A"/>
<path d="M78.3052 115.884L79.3849 131.808H78.3052C76.8793 127.043 74.8422 123.622 72.194 121.524C69.5458 119.427 66.368 118.389 62.6605 118.389C59.5438 118.389 56.7326 119.183 54.227 120.751C51.7214 122.319 49.7454 124.844 48.2991 128.285C46.8528 131.747 46.1398 136.023 46.1398 141.174C46.1398 145.41 46.8121 149.075 48.1769 152.191C49.5417 155.306 51.5788 157.689 54.3085 159.338C57.0382 160.987 60.1549 161.822 63.6587 161.822C66.6939 161.822 69.3828 161.171 71.7051 159.867C74.0274 158.564 76.5941 155.978 79.3645 152.109L80.4441 152.802C78.1015 156.976 75.3515 160.01 72.2144 161.944C69.0773 163.879 65.3698 164.836 61.0512 164.836C53.2899 164.836 47.2806 161.965 43.0231 156.202C39.8453 151.926 38.2563 146.876 38.2563 141.073C38.2563 136.41 39.2953 132.113 41.3934 128.183C43.4916 124.273 46.3639 121.239 50.051 119.081C53.7177 116.922 57.7308 115.843 62.0901 115.843C65.4716 115.843 68.8124 116.678 72.1125 118.328C73.0903 118.837 73.7625 119.081 74.1903 119.081C74.8218 119.081 75.3515 118.857 75.82 118.429C76.4107 117.818 76.8385 116.943 77.1033 115.843H78.3052V115.884Z" fill="#16335A"/>
<path d="M80.4441 163.777V162.413C80.9534 162.392 81.4423 162.331 81.9108 162.25C82.3997 162.168 82.8886 161.904 83.3775 161.476C83.8664 161.048 84.4164 160.397 84.9664 159.521C85.5164 158.646 86.1479 157.404 86.8201 155.774L99.2259 125.658H99.837L113.587 157.627C114.097 158.788 114.585 159.684 115.054 160.336C115.543 160.967 116.011 161.456 116.5 161.781C116.989 162.107 117.498 162.291 118.008 162.352C118.517 162.413 119.067 162.453 119.658 162.453V163.818H104.196V162.453C104.441 162.453 104.767 162.453 105.174 162.392C105.582 162.352 105.969 162.27 106.356 162.148C106.743 162.026 107.069 161.822 107.333 161.557C107.619 161.293 107.741 160.926 107.741 160.478C107.741 160.051 107.639 159.562 107.456 159.033C107.272 158.503 106.987 157.851 106.641 157.098L104.563 152.292H91.2609L89.2646 157.098C89.0405 157.668 88.8776 158.177 88.7757 158.585C88.6739 158.992 88.6331 159.399 88.6331 159.806C88.6331 160.315 88.7757 160.723 89.0405 161.069C89.3054 161.415 89.6313 161.68 89.998 161.863C90.385 162.046 90.7517 162.189 91.1387 162.291C91.5258 162.392 91.811 162.413 92.0554 162.413V163.777H80.4441ZM92.035 150.012H103.606L97.6777 136.267L92.0554 150.012H92.035Z" fill="#16335A"/>
<path d="M133.632 126.635C134.203 126.635 135.038 126.636 136.097 126.697C137.156 126.737 138.297 126.839 139.54 127.043C140.782 127.226 142.025 127.552 143.329 127.979C144.632 128.407 145.773 129.038 146.832 129.832C147.871 130.627 148.727 131.645 149.379 132.866C150.031 134.109 150.357 135.615 150.357 137.407C150.357 139.199 149.969 140.767 149.195 142.07C148.421 143.374 147.444 144.432 146.262 145.247C145.081 146.061 143.777 146.672 142.33 147.039C140.884 147.405 139.499 147.609 138.175 147.609C136.586 147.609 135.18 147.507 133.938 147.324C132.695 147.141 131.473 146.896 130.271 146.632V156.487C130.271 157.424 130.332 158.259 130.434 159.012C130.536 159.766 130.821 160.397 131.269 160.926C131.717 161.456 132.369 161.843 133.225 162.087C134.101 162.352 135.282 162.453 136.79 162.413V163.777H117.315V162.413C118.171 162.413 118.986 162.372 119.78 162.311C120.554 162.25 121.247 162.046 121.837 161.68C122.428 161.313 122.897 160.743 123.243 159.949C123.589 159.155 123.752 158.035 123.752 156.569V134.434C123.752 133.274 123.691 132.296 123.569 131.461C123.447 130.647 123.162 129.975 122.734 129.466C122.306 128.957 121.654 128.57 120.799 128.326C119.943 128.081 118.782 127.959 117.315 127.959V126.635H133.612H133.632ZM130.271 144.351C130.475 144.453 130.76 144.575 131.167 144.697C131.575 144.819 132.002 144.942 132.471 145.043C132.94 145.145 133.469 145.227 133.999 145.308C134.528 145.39 135.058 145.43 135.567 145.43C136.647 145.43 137.645 145.227 138.562 144.799C139.479 144.392 140.253 143.801 140.904 143.068C141.556 142.335 142.045 141.439 142.412 140.401C142.779 139.362 142.962 138.242 142.962 137C142.962 135.412 142.717 134.088 142.229 133.009C141.74 131.93 141.108 131.095 140.334 130.464C139.56 129.832 138.725 129.384 137.788 129.12C136.851 128.855 135.954 128.712 135.099 128.712C134.162 128.712 133.245 128.753 132.349 128.835C131.452 128.916 130.76 129.059 130.251 129.242V144.351H130.271Z" fill="#16335A"/>
<path d="M167.875 163.777H150.723V162.413C151.905 162.413 152.842 162.291 153.555 162.005C154.268 161.741 154.797 161.354 155.164 160.824C155.531 160.295 155.775 159.643 155.877 158.87C155.999 158.096 156.04 157.2 156.04 156.182V134.312C156.04 133.498 156.02 132.724 155.959 131.971C155.897 131.217 155.714 130.545 155.368 129.955C155.021 129.364 154.492 128.875 153.779 128.509C153.066 128.142 152.027 127.959 150.703 127.959V126.635H167.855V127.959C166.511 127.959 165.492 128.142 164.779 128.509C164.066 128.875 163.536 129.344 163.19 129.955C162.844 130.545 162.66 131.217 162.599 131.971C162.538 132.724 162.518 133.498 162.518 134.312V156.182C162.518 157.2 162.579 158.075 162.681 158.87C162.783 159.643 163.027 160.315 163.394 160.824C163.761 161.354 164.29 161.761 165.003 162.005C165.716 162.27 166.653 162.413 167.835 162.413V163.777H167.875Z" fill="#16335A"/>
<path d="M201.059 126.635L201.589 135.473H200.265C200.122 134.088 199.857 132.989 199.47 132.154C199.083 131.319 198.615 130.688 198.024 130.219C197.433 129.771 196.781 129.466 196.048 129.303C195.315 129.16 194.5 129.079 193.644 129.079H188.042V155.978C188.042 156.915 188.103 157.77 188.246 158.564C188.389 159.358 188.653 160.03 189.061 160.6C189.468 161.171 190.039 161.598 190.752 161.924C191.485 162.25 192.442 162.392 193.624 162.392V163.757H175.962V162.392C177.246 162.392 178.264 162.229 178.998 161.924C179.751 161.619 180.301 161.171 180.688 160.6C181.075 160.03 181.3 159.358 181.401 158.564C181.503 157.77 181.544 156.915 181.544 155.978V129.079H176.024C174.74 129.079 173.681 129.222 172.866 129.486C172.051 129.771 171.379 130.179 170.89 130.708C170.381 131.258 170.035 131.909 169.81 132.704C169.586 133.498 169.444 134.414 169.383 135.432H168.018L168.507 126.595H201.018L201.059 126.635Z" fill="#16335A"/>
<path d="M194.52 163.777V162.413C195.03 162.392 195.519 162.331 195.987 162.25C196.456 162.168 196.965 161.904 197.454 161.476C197.963 161.048 198.493 160.397 199.043 159.521C199.593 158.646 200.224 157.404 200.896 155.774L213.302 125.658H213.913L227.664 157.627C228.173 158.788 228.662 159.684 229.13 160.336C229.599 160.967 230.088 161.456 230.577 161.781C231.065 162.087 231.575 162.291 232.084 162.352C232.593 162.413 233.143 162.453 233.734 162.453V163.818H218.273V162.453C218.517 162.453 218.843 162.453 219.25 162.392C219.658 162.352 220.045 162.27 220.432 162.148C220.819 162.026 221.145 161.822 221.41 161.557C221.695 161.293 221.817 160.926 221.817 160.478C221.817 160.051 221.715 159.562 221.532 159.033C221.349 158.503 221.063 157.851 220.717 157.098L218.639 152.292H205.337L203.341 157.098C203.117 157.668 202.954 158.177 202.852 158.585C202.75 158.992 202.709 159.399 202.709 159.806C202.709 160.315 202.852 160.723 203.096 161.069C203.361 161.415 203.687 161.68 204.054 161.863C204.441 162.046 204.808 162.189 205.195 162.291C205.582 162.392 205.867 162.413 206.111 162.413V163.777H194.5H194.52ZM206.132 150.012H217.702L211.774 136.267L206.152 150.012H206.132Z" fill="#16335A"/>
<path d="M271.583 150.826L272.724 151.071L268.711 163.777H232.451V162.494H234.203C236.179 162.494 237.604 161.843 238.46 160.56C238.949 159.827 239.193 158.116 239.193 155.449V125.23C239.193 122.298 238.867 120.486 238.216 119.733C237.319 118.714 235.975 118.205 234.203 118.205H232.451V116.922H253.657V118.205C251.171 118.205 249.419 118.409 248.421 118.898C247.423 119.386 246.731 119.997 246.364 120.73C245.997 121.463 245.814 123.235 245.814 126.004V155.428C245.814 157.342 245.997 158.646 246.364 159.358C246.649 159.847 247.056 160.193 247.647 160.438C248.218 160.662 250.01 160.784 253.045 160.784H256.468C260.053 160.784 262.579 160.519 264.025 159.99C265.472 159.46 266.796 158.523 267.998 157.18C269.199 155.836 270.401 153.718 271.583 150.806V150.826Z" fill="#16335A"/>
<path d="M311 180.006C311 180.006 213.73 181.9 155.51 181.9C97.2905 181.9 0.0202637 180.006 0.0202637 180.006C0.0202637 180.006 97.2905 178.112 155.51 178.112C213.73 178.112 311 180.006 311 180.006Z" fill="#16335A"/>
<path d="M155.49 80.6362C174.143 80.6362 189.264 62.7584 189.264 40.705C189.264 18.6516 174.143 0.773804 155.49 0.773804C136.837 0.773804 121.715 18.6516 121.715 40.705C121.715 62.7584 136.837 80.6362 155.49 80.6362Z" stroke="#16335A" stroke-width="0.75" stroke-miterlimit="10"/>
<path d="M155.49 77.4597C172.309 77.4597 185.944 61.0041 185.944 40.7051C185.944 20.406 172.309 3.95044 155.49 3.95044C138.67 3.95044 125.035 20.406 125.035 40.7051C125.035 61.0041 138.67 77.4597 155.49 77.4597Z" fill="#16335A"/>
<path d="M175.107 18.1636L175.881 33.4967H175.107C174.088 28.9151 172.621 25.596 170.727 23.58C168.833 21.5641 166.551 20.546 163.903 20.546C161.682 20.546 159.666 21.2994 157.873 22.8266C156.08 24.3538 154.654 26.777 153.636 30.0961C152.617 33.4152 152.088 37.5488 152.088 42.497C152.088 46.5695 152.577 50.1126 153.554 53.1059C154.532 56.0992 155.999 58.4002 157.934 59.9885C159.869 61.5768 162.11 62.3913 164.616 62.3913C166.795 62.3913 168.71 61.7601 170.381 60.5179C172.051 59.2758 173.884 56.7712 175.881 53.0448L176.655 53.7168C174.964 57.7283 173.009 60.6605 170.768 62.5339C168.527 64.4072 165.858 65.3235 162.782 65.3235C157.221 65.3235 152.923 62.5542 149.867 57.0156C147.586 52.8819 146.445 48.0356 146.445 42.4563C146.445 37.9561 147.199 33.8225 148.686 30.0554C150.173 26.2883 152.251 23.3561 154.879 21.2994C157.506 19.2428 160.379 18.1839 163.495 18.1839C165.919 18.1839 168.303 18.9781 170.666 20.5867C171.358 21.0754 171.847 21.3198 172.153 21.3198C172.601 21.3198 172.988 21.1162 173.314 20.6885C173.742 20.098 174.047 19.2632 174.231 18.1839H175.086L175.107 18.1636Z" fill="white"/>
<path d="M146.017 60.64C145.447 59.9477 145.141 58.1761 145.141 55.3457V21.503C146.791 21.0753 148.136 20.8717 149.195 20.8717C150.743 20.8717 152.149 21.2179 153.392 21.8898C153.779 21.5233 154.308 21.0753 155.042 20.5663C155.938 19.9147 156.61 19.5481 157.119 19.3241C154.98 18.5707 152.149 18.1838 148.584 18.1838H133.204V19.426H134.773C136.362 19.426 137.563 19.9147 138.358 20.8921C138.908 21.5844 139.193 23.356 139.193 26.1864V55.3661C139.193 57.9521 138.989 59.5812 138.582 60.2531C137.828 61.4953 136.545 62.1265 134.773 62.1265H133.204V63.3686H151.191V62.1265H149.582C147.993 62.1265 146.812 61.6378 146.017 60.6604V60.64Z" fill="white"/>
<path d="M162.945 23.6206C162.334 22.8061 161.642 22.0934 160.908 21.4825C160.195 21.8694 158.932 22.5618 158.117 23.193C157.364 23.7835 156.814 24.4962 156.529 24.9646C156.692 25.27 156.875 25.5551 157.017 25.8809C157.751 27.5506 158.138 29.3629 158.138 31.3177C158.138 34.1685 157.364 36.4695 155.795 38.2614C154.41 39.8497 152.76 40.7049 150.906 40.8678V43.0466C151.354 43.067 151.803 43.0873 152.23 43.0873C156.366 43.0873 159.543 41.9267 161.805 39.6257C164.066 37.3247 165.186 34.311 165.186 30.6254C165.186 27.9171 164.453 25.5754 162.966 23.6003L162.945 23.6206Z" fill="white"/>
</g>
<defs>
<clipPath id="clip0_39_2">
<rect width="311" height="201" fill="white"/>
</clipPath>
</defs>
</svg>
