<svg width="311" height="201" viewBox="0 0 311 201" fill="none" xmlns="http://www.w3.org/2000/svg">
<g clip-path="url(#clip0_60_5)">
<path d="M74.7811 200.776V200.532H75.1274C75.5145 200.532 75.7793 200.409 75.9422 200.165C76.0441 200.023 76.0848 199.676 76.0848 199.167V193.282C76.0848 192.712 76.0237 192.366 75.9015 192.224C75.7182 192.02 75.4737 191.918 75.1274 191.918H74.7811V191.674H78.4886C79.8534 191.674 80.8923 191.837 81.5849 192.142C82.2979 192.448 82.8683 192.957 83.2961 193.69C83.7239 194.402 83.9479 195.237 83.9479 196.194C83.9479 197.457 83.5609 198.516 82.7868 199.371C81.9312 200.328 80.6071 200.796 78.8349 200.796H74.7607L74.7811 200.776ZM77.3682 200.124C77.9386 200.247 78.4071 200.308 78.7941 200.308C79.8331 200.308 80.6886 199.941 81.3812 199.208C82.0738 198.475 82.3998 197.498 82.3998 196.235C82.3998 194.973 82.0535 193.995 81.3812 193.262C80.6886 192.529 79.8127 192.183 78.733 192.183C78.3256 192.183 77.8775 192.244 77.3478 192.387V200.124H77.3682Z" fill="white"/>
<path d="M93.5022 193.038V193.324C93.1966 193.324 92.9522 193.364 92.7892 193.425C92.6262 193.507 92.504 193.588 92.4225 193.731C92.3411 193.853 92.3003 194.016 92.2799 194.179C92.2799 194.362 92.2596 194.545 92.2596 194.749V197.824C92.2596 198.129 92.2392 198.455 92.1985 198.76C92.1577 199.086 92.0762 199.351 91.954 199.555C91.791 199.86 91.567 200.104 91.3225 200.288C91.0781 200.471 90.8336 200.613 90.5688 200.715C90.304 200.817 90.0392 200.898 89.7947 200.919C89.5299 200.96 89.3058 200.98 89.0817 200.98C87.9817 200.98 87.1669 200.736 86.6169 200.247C86.0669 199.758 85.802 199.045 85.802 198.068V194.729C85.802 194.484 85.802 194.26 85.7613 194.077C85.7206 193.894 85.6798 193.751 85.5983 193.629C85.5169 193.507 85.3946 193.425 85.2113 193.364C85.0483 193.303 84.8243 193.283 84.5391 193.283V192.998H88.3688V193.283C88.0836 193.283 87.8595 193.303 87.6965 193.364C87.5336 193.425 87.4113 193.507 87.3299 193.629C87.2484 193.751 87.1873 193.894 87.1669 194.077C87.1669 194.26 87.1465 194.484 87.1465 194.729V198.068C87.1465 198.068 87.1465 198.251 87.1465 198.394C87.1465 198.536 87.1669 198.699 87.2076 198.862C87.2484 199.025 87.3095 199.208 87.391 199.392C87.4725 199.575 87.5947 199.738 87.7576 199.88C87.9206 200.023 88.1039 200.145 88.3484 200.247C88.5928 200.349 88.878 200.389 89.2243 200.389C89.4077 200.389 89.591 200.389 89.7947 200.328C89.9984 200.288 90.1818 200.247 90.3651 200.165C90.5484 200.084 90.7318 200.003 90.8947 199.88C91.0577 199.758 91.2003 199.616 91.3021 199.453C91.404 199.31 91.4651 199.168 91.5262 199.025C91.5873 198.883 91.6281 198.74 91.6485 198.597C91.6688 198.455 91.6892 198.312 91.7096 198.17C91.7096 198.027 91.7096 197.885 91.7096 197.722V194.403C91.7096 194.24 91.7096 194.077 91.6688 193.934C91.6484 193.792 91.5873 193.67 91.5058 193.568C91.4244 193.466 91.3021 193.385 91.1392 193.324C90.9966 193.262 90.7929 193.242 90.5281 193.242V192.957H93.4818L93.5022 193.038Z" fill="white"/>
<path d="M99.8371 200.776L96.9852 197.192C96.9852 197.192 96.8426 197.192 96.8018 197.192C96.7611 197.192 96.7 197.192 96.6593 197.192C96.6185 197.192 96.5778 197.192 96.5167 197.192C96.4555 197.192 96.4148 197.192 96.3537 197.192V199.289C96.3537 199.595 96.3944 199.819 96.4759 199.981C96.5574 200.144 96.6592 200.267 96.7611 200.348C96.8833 200.429 96.9852 200.47 97.1278 200.491C97.25 200.491 97.3722 200.491 97.4741 200.491V200.776H93.7666V200.491C94.0314 200.491 94.2555 200.47 94.4185 200.409C94.5814 200.348 94.7037 200.267 94.8055 200.165C94.887 200.043 94.9481 199.9 94.9685 199.717C94.9888 199.533 95.0092 199.33 95.0092 199.065V194.728C95.0092 194.484 95.0092 194.26 94.9685 194.076C94.9481 193.893 94.887 193.75 94.8055 193.628C94.724 193.506 94.6018 193.425 94.4185 193.364C94.2555 193.303 94.0314 193.282 93.7666 193.282V192.997H97.1278C97.2907 192.997 97.4741 192.997 97.6778 192.997C97.8815 192.997 98.0852 193.038 98.3093 193.079C98.513 193.119 98.7371 193.18 98.9408 193.262C99.1445 193.343 99.3686 193.445 99.5519 193.588C99.7556 193.73 99.9389 193.934 100.082 194.178C100.224 194.422 100.285 194.687 100.285 195.013C100.285 195.257 100.244 195.461 100.183 195.644C100.102 195.827 100.02 195.99 99.8982 196.133C99.776 196.275 99.6537 196.377 99.5111 196.479C99.3686 196.581 99.226 196.642 99.0834 196.723C98.9408 196.785 98.8185 196.846 98.6963 196.866C98.5741 196.907 98.4722 196.927 98.3908 196.947L100.407 199.452C100.53 199.595 100.652 199.737 100.754 199.839C100.856 199.961 100.978 200.043 101.08 200.124C101.182 200.205 101.304 200.267 101.446 200.328C101.569 200.389 101.711 200.429 101.874 200.45V200.735H99.8371V200.776ZM96.3333 196.785C96.3333 196.785 96.537 196.785 96.6389 196.785C96.7407 196.785 96.863 196.785 96.9852 196.785C97.1074 196.785 97.25 196.744 97.3722 196.703C97.5148 196.662 97.6574 196.601 97.8 196.54C97.963 196.459 98.0852 196.377 98.2074 196.255C98.3296 196.133 98.4111 196.011 98.4926 195.889C98.5741 195.766 98.6148 195.624 98.6556 195.461C98.6963 195.318 98.7167 195.176 98.7167 195.054C98.7167 194.83 98.676 194.606 98.5945 194.402C98.513 194.198 98.4111 194.036 98.2685 193.893C98.1259 193.75 97.963 193.628 97.7593 193.547C97.5556 193.465 97.3315 193.425 97.087 193.425C96.9444 193.425 96.8018 193.425 96.6593 193.445C96.5167 193.465 96.4148 193.486 96.3129 193.486V196.764L96.3333 196.785Z" fill="white"/>
<path d="M110.919 193.038V193.324C110.613 193.324 110.369 193.364 110.206 193.425C110.043 193.486 109.921 193.588 109.839 193.731C109.758 193.853 109.717 194.016 109.697 194.179C109.697 194.362 109.676 194.545 109.676 194.749V197.824C109.676 198.129 109.656 198.455 109.595 198.76C109.554 199.086 109.473 199.351 109.35 199.555C109.188 199.86 108.963 200.104 108.719 200.288C108.475 200.471 108.23 200.613 107.965 200.715C107.7 200.817 107.436 200.898 107.191 200.919C106.926 200.96 106.702 200.98 106.478 200.98C105.378 200.98 104.543 200.736 104.013 200.247C103.484 199.758 103.199 199.045 103.199 198.068V194.729C103.199 194.484 103.199 194.26 103.158 194.077C103.137 193.894 103.076 193.751 102.995 193.629C102.913 193.507 102.791 193.425 102.608 193.364C102.445 193.303 102.221 193.283 101.936 193.283V192.998H105.765V193.283C105.48 193.283 105.256 193.303 105.093 193.364C104.93 193.425 104.808 193.507 104.726 193.629C104.645 193.751 104.584 193.894 104.563 194.077C104.543 194.26 104.523 194.484 104.523 194.729V198.068C104.523 198.068 104.523 198.251 104.523 198.394C104.523 198.536 104.543 198.699 104.584 198.862C104.624 199.025 104.686 199.208 104.767 199.392C104.849 199.575 104.971 199.738 105.134 199.88C105.297 200.023 105.48 200.145 105.725 200.247C105.969 200.349 106.254 200.389 106.6 200.389C106.784 200.389 106.967 200.389 107.171 200.328C107.375 200.267 107.558 200.247 107.741 200.165C107.925 200.084 108.108 200.003 108.271 199.88C108.434 199.758 108.576 199.616 108.678 199.453C108.78 199.31 108.841 199.168 108.902 199.025C108.963 198.883 109.004 198.74 109.025 198.597C109.045 198.455 109.065 198.312 109.086 198.17C109.086 198.027 109.086 197.885 109.086 197.722V194.403C109.086 194.24 109.086 194.077 109.045 193.934C109.025 193.792 108.963 193.67 108.882 193.568C108.8 193.466 108.678 193.385 108.515 193.324C108.352 193.262 108.169 193.242 107.904 193.242V192.957H110.858L110.919 193.038Z" fill="white"/>
<path d="M113.689 193.038L116.113 198.74L118.415 193.038H121.002V193.323C120.717 193.323 120.493 193.364 120.33 193.425C120.167 193.506 120.065 193.608 119.984 193.73C119.902 193.853 119.861 194.015 119.841 194.199C119.821 194.382 119.821 194.565 119.821 194.789V199.045C119.821 199.249 119.821 199.432 119.821 199.615C119.821 199.798 119.882 199.941 119.943 200.084C120.004 200.226 120.126 200.308 120.289 200.389C120.452 200.47 120.676 200.491 120.961 200.491V200.776H117.397V200.491C117.661 200.491 117.845 200.45 117.987 200.369C118.13 200.287 118.232 200.165 118.293 200.022C118.354 199.88 118.395 199.717 118.415 199.513C118.415 199.33 118.415 199.127 118.415 198.903V194.178H118.395L115.767 200.776H115.502L112.874 194.504H112.833V199.208C112.833 199.473 112.854 199.697 112.895 199.88C112.935 200.043 113.017 200.185 113.119 200.267C113.221 200.348 113.363 200.43 113.526 200.45C113.689 200.491 113.913 200.491 114.158 200.491V200.776H111.183V200.491C111.469 200.491 111.693 200.45 111.856 200.369C112.019 200.287 112.121 200.185 112.202 200.084C112.283 199.961 112.324 199.839 112.324 199.676C112.324 199.534 112.324 199.391 112.324 199.249V195.135C112.324 194.83 112.324 194.545 112.324 194.321C112.324 194.097 112.283 193.893 112.202 193.751C112.141 193.608 112.019 193.486 111.856 193.425C111.693 193.364 111.469 193.323 111.163 193.323V193.038H113.628H113.689Z" fill="white"/>
<path d="M128.763 193.038C128.886 193.038 129.049 193.038 129.273 193.038C129.497 193.038 129.741 193.079 129.986 193.12C130.25 193.16 130.515 193.221 130.78 193.323C131.045 193.405 131.289 193.547 131.513 193.71C131.738 193.873 131.9 194.077 132.043 194.341C132.186 194.606 132.247 194.911 132.247 195.278C132.247 195.645 132.165 195.97 132.002 196.255C131.839 196.52 131.636 196.744 131.391 196.927C131.147 197.09 130.882 197.212 130.576 197.294C130.271 197.375 129.986 197.416 129.721 197.416C129.395 197.416 129.089 197.416 128.845 197.355C128.58 197.314 128.336 197.274 128.091 197.212V199.269C128.091 199.473 128.091 199.636 128.132 199.798C128.173 199.961 128.213 200.084 128.295 200.206C128.397 200.308 128.519 200.389 128.702 200.45C128.886 200.511 129.13 200.532 129.456 200.511V200.796H125.402V200.511C125.586 200.511 125.749 200.511 125.911 200.511C126.074 200.511 126.217 200.45 126.339 200.369C126.461 200.287 126.563 200.165 126.624 200.002C126.706 199.839 126.726 199.595 126.726 199.289V194.687C126.726 194.443 126.726 194.239 126.686 194.077C126.645 193.914 126.604 193.771 126.523 193.649C126.441 193.527 126.299 193.466 126.115 193.405C125.932 193.344 125.687 193.323 125.382 193.323V193.038H128.784H128.763ZM128.071 196.744C128.071 196.744 128.173 196.785 128.254 196.805C128.336 196.826 128.417 196.846 128.519 196.887C128.621 196.887 128.723 196.927 128.845 196.948C128.967 196.948 129.069 196.968 129.171 196.968C129.395 196.968 129.599 196.927 129.802 196.846C129.986 196.764 130.149 196.642 130.291 196.479C130.434 196.316 130.536 196.133 130.597 195.93C130.658 195.726 130.719 195.482 130.719 195.217C130.719 194.891 130.678 194.606 130.556 194.382C130.454 194.158 130.332 193.975 130.169 193.853C130.006 193.73 129.823 193.629 129.639 193.568C129.456 193.506 129.252 193.486 129.089 193.486C128.906 193.486 128.702 193.486 128.519 193.506C128.336 193.506 128.193 193.547 128.091 193.588V196.744H128.071Z" fill="white"/>
<path d="M131.249 200.776V200.491C131.351 200.491 131.453 200.491 131.555 200.451C131.656 200.451 131.758 200.369 131.86 200.288C131.962 200.206 132.084 200.064 132.186 199.88C132.308 199.697 132.431 199.432 132.573 199.107L135.16 192.835H135.282L138.155 199.494C138.257 199.738 138.358 199.921 138.46 200.064C138.562 200.206 138.664 200.288 138.766 200.369C138.868 200.43 138.97 200.471 139.092 200.491C139.194 200.491 139.316 200.491 139.438 200.491V200.776H136.219V200.491C136.219 200.491 136.342 200.491 136.423 200.491C136.505 200.491 136.586 200.471 136.668 200.43C136.749 200.41 136.81 200.369 136.871 200.308C136.932 200.247 136.953 200.186 136.953 200.084C136.953 199.982 136.953 199.901 136.892 199.779C136.851 199.677 136.79 199.534 136.729 199.371L136.301 198.374H133.531L133.123 199.371C133.082 199.494 133.042 199.595 133.021 199.677C133.021 199.758 132.981 199.84 132.981 199.921C132.981 200.023 133.001 200.104 133.062 200.186C133.123 200.267 133.184 200.308 133.266 200.349C133.347 200.39 133.429 200.41 133.51 200.43C133.592 200.43 133.653 200.451 133.694 200.451V200.736H131.269L131.249 200.776ZM133.673 197.926H136.077L134.834 195.055L133.653 197.926H133.673Z" fill="white"/>
<path d="M144.959 193.038L145.06 194.871H144.775C144.734 194.586 144.694 194.362 144.612 194.178C144.531 193.995 144.429 193.873 144.307 193.771C144.184 193.669 144.042 193.608 143.899 193.588C143.757 193.568 143.573 193.547 143.39 193.547H142.229V199.147C142.229 199.33 142.229 199.513 142.27 199.676C142.29 199.839 142.351 199.982 142.433 200.104C142.514 200.226 142.636 200.308 142.779 200.389C142.921 200.45 143.125 200.491 143.37 200.491V200.776H139.703V200.491C139.968 200.491 140.192 200.45 140.334 200.389C140.497 200.328 140.599 200.226 140.681 200.104C140.762 199.982 140.803 199.839 140.823 199.676C140.823 199.513 140.864 199.33 140.864 199.147V193.547H139.723C139.458 193.547 139.234 193.568 139.071 193.629C138.908 193.69 138.766 193.771 138.664 193.893C138.562 193.995 138.481 194.138 138.44 194.301C138.399 194.463 138.358 194.647 138.358 194.871H138.073L138.175 193.038H144.938H144.959Z" fill="white"/>
<path d="M151.905 193.038L151.986 194.871H151.701C151.681 194.525 151.599 194.239 151.477 194.056C151.355 193.873 151.192 193.73 151.029 193.629C150.846 193.547 150.662 193.486 150.459 193.466C150.255 193.466 150.072 193.445 149.888 193.445H148.238V196.52H149.766C150.071 196.52 150.316 196.479 150.479 196.418C150.642 196.357 150.764 196.255 150.846 196.133C150.927 196.011 150.968 195.889 150.968 195.746C150.968 195.604 150.968 195.441 150.968 195.298H151.253V198.149H150.968C150.968 197.966 150.968 197.783 150.927 197.64C150.907 197.498 150.846 197.355 150.764 197.253C150.683 197.151 150.54 197.07 150.377 197.009C150.214 196.948 149.97 196.927 149.664 196.927H148.218V199.513C148.218 199.676 148.218 199.798 148.218 199.921C148.218 200.022 148.259 200.124 148.32 200.185C148.381 200.267 148.462 200.308 148.584 200.348C148.707 200.389 148.87 200.389 149.094 200.389H149.746C150.01 200.389 150.255 200.389 150.479 200.328C150.703 200.287 150.907 200.226 151.09 200.104C151.273 199.982 151.457 199.839 151.599 199.615C151.762 199.412 151.905 199.127 152.047 198.76H152.333L151.864 200.776H145.896V200.491C146.14 200.491 146.344 200.45 146.466 200.369C146.608 200.287 146.69 200.185 146.771 200.063C146.853 199.941 146.873 199.798 146.873 199.656C146.873 199.513 146.873 199.371 146.873 199.228V194.545C146.873 194.362 146.873 194.178 146.853 194.036C146.853 193.893 146.792 193.751 146.731 193.649C146.67 193.547 146.568 193.466 146.425 193.405C146.283 193.344 146.12 193.323 145.896 193.323V193.038H151.925H151.905Z" fill="white"/>
<path d="M154.96 193.038L160.195 198.637V194.748C160.195 194.504 160.195 194.28 160.134 194.097C160.073 193.913 160.032 193.771 159.951 193.649C159.869 193.526 159.727 193.445 159.564 193.384C159.401 193.323 159.197 193.302 158.932 193.302V193.017H161.825V193.302C161.662 193.302 161.499 193.302 161.356 193.323C161.214 193.343 161.092 193.384 160.99 193.465C160.888 193.547 160.806 193.649 160.766 193.791C160.725 193.934 160.684 194.137 160.684 194.361V200.735H160.419L154.797 194.626V199.024C154.797 199.269 154.797 199.493 154.838 199.656C154.858 199.839 154.919 199.981 155.021 200.103C155.123 200.226 155.245 200.307 155.408 200.368C155.571 200.429 155.795 200.45 156.08 200.45V200.735H153.127V200.45C153.432 200.45 153.656 200.409 153.819 200.348C153.982 200.287 154.084 200.185 154.166 200.042C154.247 199.92 154.288 199.757 154.288 199.574C154.288 199.391 154.288 199.187 154.288 198.943V194.097C154.104 193.913 153.962 193.771 153.84 193.649C153.717 193.547 153.595 193.445 153.493 193.404C153.392 193.363 153.269 193.302 153.167 193.282C153.066 193.282 152.943 193.262 152.801 193.262V192.977H154.94L154.96 193.038Z" fill="white"/>
<path d="M169.281 193.038L169.383 194.871H169.097C169.077 194.586 169.016 194.362 168.934 194.178C168.853 194.015 168.751 193.873 168.629 193.771C168.507 193.669 168.364 193.608 168.221 193.588C168.079 193.568 167.895 193.547 167.712 193.547H166.551V199.147C166.551 199.33 166.551 199.513 166.592 199.676C166.612 199.839 166.673 199.982 166.755 200.104C166.836 200.226 166.958 200.308 167.101 200.389C167.244 200.45 167.447 200.491 167.692 200.491V200.776H164.005V200.491C164.269 200.491 164.494 200.45 164.636 200.389C164.779 200.328 164.901 200.226 164.982 200.104C165.064 199.982 165.105 199.839 165.125 199.676C165.145 199.513 165.166 199.33 165.166 199.147V193.547H164.025C163.76 193.547 163.536 193.568 163.373 193.629C163.21 193.69 163.068 193.771 162.966 193.893C162.864 193.995 162.782 194.138 162.742 194.301C162.701 194.463 162.66 194.647 162.66 194.871H162.375L162.477 193.038H169.26H169.281Z" fill="white"/>
<path d="M173.64 200.776H170.075V200.491C170.32 200.491 170.523 200.47 170.666 200.409C170.809 200.348 170.931 200.267 170.992 200.165C171.073 200.063 171.114 199.921 171.134 199.758C171.155 199.595 171.175 199.411 171.175 199.208V194.647C171.175 194.484 171.175 194.321 171.175 194.158C171.175 193.995 171.114 193.852 171.053 193.73C170.992 193.608 170.87 193.506 170.727 193.425C170.584 193.343 170.36 193.303 170.075 193.303V193.018H173.64V193.303C173.355 193.303 173.151 193.343 173.009 193.425C172.866 193.506 172.744 193.608 172.683 193.73C172.601 193.852 172.56 193.995 172.56 194.158C172.56 194.321 172.56 194.484 172.56 194.647V199.208C172.56 199.411 172.56 199.615 172.601 199.758C172.622 199.921 172.683 200.063 172.744 200.165C172.825 200.267 172.927 200.348 173.09 200.409C173.233 200.47 173.436 200.491 173.681 200.491V200.776H173.64Z" fill="white"/>
<path d="M174.048 200.776V200.491C174.15 200.491 174.252 200.491 174.353 200.451C174.455 200.451 174.557 200.369 174.659 200.288C174.761 200.206 174.883 200.064 174.985 199.88C175.107 199.697 175.229 199.432 175.372 199.107L177.959 192.835H178.081L180.954 199.494C181.055 199.738 181.157 199.921 181.259 200.064C181.361 200.206 181.463 200.288 181.565 200.369C181.666 200.43 181.768 200.471 181.87 200.491C181.972 200.491 182.094 200.491 182.217 200.491V200.776H178.998V200.491C178.998 200.491 179.12 200.491 179.202 200.491C179.283 200.491 179.365 200.471 179.446 200.43C179.528 200.41 179.589 200.369 179.65 200.308C179.711 200.247 179.731 200.186 179.731 200.084C179.731 199.982 179.731 199.901 179.67 199.779C179.629 199.677 179.568 199.534 179.507 199.371L179.079 198.374H176.309L175.881 199.371C175.84 199.494 175.8 199.595 175.779 199.677C175.779 199.758 175.759 199.84 175.759 199.921C175.759 200.023 175.779 200.104 175.84 200.186C175.902 200.267 175.963 200.308 176.044 200.349C176.126 200.39 176.207 200.41 176.289 200.43C176.37 200.43 176.431 200.451 176.472 200.451V200.736H174.048V200.776ZM176.452 197.926H178.855L177.613 195.055L176.431 197.926H176.452Z" fill="white"/>
<path d="M192.911 194.891H192.606C192.586 194.647 192.545 194.423 192.504 194.24C192.443 194.057 192.361 193.914 192.26 193.792C192.158 193.67 191.995 193.588 191.811 193.527C191.628 193.466 191.384 193.446 191.119 193.446H189.123V196.459H190.365C190.569 196.459 190.752 196.459 190.895 196.419C191.037 196.419 191.16 196.337 191.282 196.276C191.384 196.195 191.465 196.072 191.526 195.91C191.587 195.747 191.608 195.523 191.648 195.258H191.934V198.149H191.648C191.648 197.925 191.608 197.722 191.567 197.579C191.526 197.416 191.465 197.294 191.363 197.192C191.261 197.091 191.119 197.029 190.956 196.989C190.773 196.948 190.548 196.928 190.263 196.928H189.163V198.984C189.163 199.229 189.163 199.432 189.184 199.636C189.204 199.84 189.245 199.982 189.326 200.125C189.408 200.267 189.51 200.349 189.673 200.43C189.835 200.491 190.06 200.532 190.345 200.532V200.817H186.576V200.532C186.861 200.532 187.106 200.511 187.269 200.45C187.432 200.389 187.554 200.308 187.635 200.186C187.717 200.063 187.778 199.921 187.798 199.738C187.798 199.554 187.819 199.351 187.819 199.106V194.769C187.819 194.566 187.819 194.362 187.798 194.199C187.798 194.016 187.737 193.873 187.656 193.751C187.574 193.629 187.452 193.527 187.289 193.466C187.126 193.405 186.882 193.364 186.576 193.364V193.079H192.871L192.973 194.912L192.911 194.891Z" fill="white"/>
<path d="M199.389 200.776L196.537 197.192C196.537 197.192 196.394 197.192 196.354 197.192C196.313 197.192 196.252 197.192 196.211 197.192C196.17 197.192 196.109 197.192 196.068 197.192C196.028 197.192 195.967 197.192 195.905 197.192V199.289C195.905 199.595 195.946 199.819 196.028 199.981C196.109 200.144 196.191 200.267 196.313 200.348C196.435 200.429 196.557 200.47 196.68 200.491C196.802 200.491 196.924 200.491 197.026 200.491V200.776H193.318V200.491C193.583 200.491 193.807 200.47 193.97 200.409C194.133 200.348 194.255 200.267 194.357 200.165C194.439 200.043 194.5 199.9 194.52 199.717C194.541 199.533 194.561 199.33 194.561 199.065V194.728C194.561 194.484 194.561 194.26 194.52 194.076C194.5 193.893 194.439 193.75 194.357 193.628C194.276 193.506 194.154 193.425 193.97 193.364C193.807 193.303 193.583 193.282 193.318 193.282V192.997H196.68C196.842 192.997 197.026 192.997 197.23 192.997C197.433 192.997 197.637 193.038 197.861 193.079C198.065 193.119 198.289 193.18 198.513 193.262C198.737 193.343 198.941 193.445 199.124 193.588C199.328 193.73 199.511 193.934 199.654 194.178C199.796 194.422 199.857 194.687 199.857 195.013C199.857 195.257 199.817 195.461 199.756 195.644C199.694 195.827 199.593 195.99 199.47 196.133C199.348 196.275 199.226 196.377 199.083 196.479C198.941 196.581 198.798 196.642 198.655 196.723C198.513 196.785 198.391 196.846 198.248 196.866C198.126 196.907 198.024 196.927 197.943 196.947L199.959 199.452C200.081 199.595 200.204 199.737 200.306 199.839C200.407 199.961 200.53 200.043 200.631 200.124C200.754 200.205 200.856 200.267 200.998 200.328C201.12 200.389 201.263 200.429 201.426 200.45V200.735H199.389V200.776ZM195.885 196.785C195.885 196.785 196.089 196.785 196.191 196.785C196.292 196.785 196.415 196.785 196.537 196.785C196.659 196.785 196.802 196.744 196.944 196.703C197.087 196.662 197.23 196.601 197.372 196.54C197.535 196.459 197.657 196.377 197.78 196.255C197.902 196.133 197.983 196.011 198.065 195.889C198.146 195.766 198.187 195.624 198.228 195.461C198.268 195.318 198.289 195.176 198.289 195.054C198.289 194.83 198.248 194.606 198.167 194.402C198.085 194.198 197.983 194.036 197.841 193.893C197.698 193.75 197.535 193.628 197.331 193.547C197.128 193.465 196.904 193.425 196.659 193.425C196.517 193.425 196.374 193.425 196.231 193.445C196.089 193.445 195.987 193.486 195.885 193.486V196.764V196.785Z" fill="white"/>
<path d="M201.508 200.776V200.491C201.61 200.491 201.712 200.491 201.813 200.451C201.915 200.451 202.017 200.369 202.119 200.288C202.221 200.206 202.343 200.064 202.445 199.88C202.567 199.697 202.689 199.432 202.832 199.107L205.419 192.835H205.541L208.413 199.494C208.515 199.738 208.617 199.921 208.719 200.064C208.821 200.206 208.923 200.288 209.025 200.369C209.126 200.43 209.228 200.471 209.33 200.491C209.432 200.491 209.554 200.491 209.676 200.491V200.776H206.458V200.491C206.458 200.491 206.58 200.491 206.662 200.491C206.743 200.491 206.825 200.471 206.906 200.43C206.988 200.41 207.049 200.369 207.11 200.308C207.171 200.247 207.191 200.186 207.191 200.084C207.191 199.982 207.191 199.901 207.13 199.779C207.089 199.677 207.028 199.534 206.967 199.371L206.539 198.374H203.769L203.341 199.371C203.3 199.494 203.26 199.595 203.239 199.677C203.239 199.758 203.219 199.84 203.219 199.921C203.219 200.023 203.239 200.104 203.3 200.186C203.362 200.267 203.423 200.308 203.504 200.349C203.586 200.39 203.667 200.41 203.749 200.43C203.83 200.43 203.891 200.451 203.932 200.451V200.736H201.508V200.776ZM203.912 197.926H206.315L205.073 195.055L203.891 197.926H203.912Z" fill="white"/>
<path d="M212.039 193.038L217.274 198.637V194.748C217.274 194.504 217.274 194.28 217.213 194.097C217.152 193.913 217.111 193.771 217.03 193.649C216.949 193.526 216.806 193.445 216.643 193.384C216.48 193.323 216.276 193.302 216.011 193.302V193.017H218.904V193.302C218.741 193.302 218.578 193.302 218.436 193.323C218.293 193.343 218.171 193.384 218.069 193.465C217.967 193.547 217.886 193.649 217.845 193.791C217.804 193.934 217.763 194.137 217.763 194.361V200.735H217.499L211.876 194.626V199.024C211.876 199.269 211.876 199.493 211.917 199.656C211.937 199.839 211.998 199.981 212.1 200.103C212.182 200.226 212.324 200.307 212.487 200.368C212.65 200.429 212.874 200.45 213.16 200.45V200.735H210.206V200.45C210.511 200.45 210.735 200.409 210.898 200.348C211.061 200.287 211.163 200.185 211.245 200.042C211.326 199.92 211.367 199.757 211.367 199.574C211.367 199.391 211.367 199.187 211.367 198.943V194.097C211.204 193.913 211.041 193.771 210.919 193.649C210.797 193.547 210.674 193.445 210.572 193.404C210.471 193.343 210.348 193.302 210.247 193.282C210.145 193.282 210.022 193.262 209.88 193.262V192.977H212.019L212.039 193.038Z" fill="white"/>
<path d="M227.093 195.584H226.808C226.808 195.584 226.726 195.38 226.685 195.258C226.645 195.156 226.604 195.034 226.543 194.912C226.482 194.79 226.421 194.688 226.339 194.566C226.258 194.444 226.156 194.342 226.054 194.22C225.911 194.077 225.748 193.955 225.585 193.833C225.422 193.711 225.239 193.629 225.056 193.548C224.872 193.466 224.689 193.405 224.485 193.364C224.282 193.324 224.098 193.303 223.915 193.303C223.528 193.303 223.161 193.385 222.835 193.548C222.509 193.711 222.224 193.955 221.98 194.26C221.735 194.566 221.552 194.953 221.43 195.38C221.308 195.828 221.226 196.317 221.226 196.867C221.226 197.355 221.267 197.803 221.369 198.17C221.47 198.537 221.572 198.862 221.735 199.127C221.898 199.392 222.061 199.616 222.245 199.779C222.448 199.942 222.652 200.084 222.856 200.186C223.059 200.288 223.283 200.349 223.487 200.39C223.691 200.43 223.895 200.451 224.058 200.451C224.363 200.451 224.669 200.39 224.995 200.288C225.321 200.186 225.626 200.003 225.932 199.738C226.054 199.636 226.176 199.514 226.258 199.412C226.339 199.31 226.441 199.208 226.502 199.107C226.563 199.005 226.645 198.883 226.706 198.781C226.767 198.659 226.828 198.537 226.909 198.414L227.174 198.577C227.174 198.577 227.072 198.781 227.011 198.923C226.93 199.066 226.848 199.249 226.726 199.432C226.604 199.616 226.461 199.799 226.278 199.982C226.095 200.166 225.891 200.328 225.646 200.491C225.402 200.634 225.117 200.756 224.791 200.858C224.465 200.96 224.119 201 223.711 201C223.182 201 222.672 200.899 222.204 200.715C221.715 200.532 221.287 200.247 220.92 199.901C220.554 199.555 220.248 199.127 220.024 198.638C219.8 198.15 219.698 197.62 219.698 197.03C219.698 196.439 219.8 195.889 220.024 195.38C220.248 194.871 220.533 194.423 220.9 194.057C221.267 193.69 221.695 193.385 222.183 193.161C222.672 192.937 223.202 192.835 223.752 192.835C224.159 192.835 224.485 192.876 224.75 192.957C225.015 193.039 225.239 193.12 225.422 193.201C225.545 193.263 225.646 193.303 225.728 193.324C225.809 193.344 225.871 193.385 225.911 193.405C225.952 193.425 225.993 193.425 226.013 193.446C226.034 193.446 226.074 193.446 226.095 193.446C226.095 193.446 226.156 193.446 226.197 193.446C226.237 193.446 226.278 193.405 226.339 193.364C226.38 193.324 226.421 193.263 226.461 193.181C226.502 193.1 226.522 192.977 226.543 192.835H226.808L227.093 195.564V195.584Z" fill="white"/>
<path d="M228.295 196.785C228.295 196.235 228.397 195.726 228.58 195.257C228.784 194.789 229.049 194.361 229.395 194.015C229.741 193.669 230.169 193.384 230.637 193.18C231.126 192.977 231.656 192.875 232.226 192.875C232.797 192.875 233.347 192.977 233.836 193.18C234.325 193.384 234.752 193.669 235.099 194.036C235.445 194.402 235.71 194.83 235.913 195.339C236.117 195.848 236.199 196.377 236.199 196.968C236.199 197.558 236.097 198.067 235.893 198.556C235.689 199.045 235.425 199.493 235.078 199.839C234.732 200.206 234.304 200.491 233.836 200.694C233.347 200.898 232.817 201 232.247 201C231.982 201 231.697 200.979 231.412 200.918C231.106 200.857 230.821 200.776 230.515 200.654C230.23 200.531 229.945 200.348 229.66 200.144C229.395 199.941 229.15 199.676 228.947 199.35C228.743 199.045 228.58 198.678 228.458 198.251C228.336 197.823 228.274 197.334 228.274 196.785H228.295ZM229.843 196.886C229.843 196.988 229.843 197.151 229.843 197.375C229.843 197.599 229.884 197.843 229.924 198.129C229.965 198.414 230.047 198.678 230.128 198.984C230.23 199.269 230.373 199.534 230.536 199.778C230.699 200.022 230.943 200.206 231.228 200.368C231.513 200.531 231.839 200.592 232.247 200.592C232.654 200.592 233 200.511 233.265 200.368C233.55 200.206 233.775 200.022 233.958 199.778C234.141 199.534 234.284 199.269 234.386 198.984C234.487 198.699 234.549 198.414 234.589 198.129C234.63 197.864 234.671 197.62 234.671 197.396C234.671 197.172 234.671 197.009 234.671 196.907C234.671 196.724 234.671 196.52 234.671 196.255C234.671 195.99 234.63 195.746 234.569 195.481C234.508 195.217 234.447 194.952 234.325 194.687C234.223 194.423 234.08 194.178 233.897 193.975C233.713 193.771 233.489 193.588 233.225 193.466C232.96 193.343 232.634 193.262 232.247 193.262C231.9 193.262 231.595 193.323 231.35 193.425C231.106 193.527 230.882 193.69 230.699 193.873C230.515 194.056 230.373 194.28 230.25 194.524C230.128 194.769 230.047 195.033 229.986 195.298C229.924 195.563 229.884 195.848 229.843 196.113C229.823 196.377 229.802 196.642 229.802 196.886H229.843Z" fill="white"/>
<path d="M94.3167 104.603V113.033C94.3167 114.866 94.5204 115.986 94.9074 116.434C95.4575 117.065 96.2723 117.37 97.3723 117.37H98.4927V118.165H86.0869V117.37H87.1869C88.4092 117.37 89.2851 116.963 89.8148 116.169C90.1 115.721 90.2425 114.683 90.2425 113.033V94.3199C90.2425 92.4872 90.0592 91.3673 89.6722 90.9193C89.1222 90.2881 88.287 89.9826 87.1869 89.9826H86.0869V89.1885H96.7001C99.2872 89.1885 101.345 89.4532 102.832 89.9826C104.319 90.512 105.582 91.408 106.621 92.6909C107.639 93.9533 108.169 95.4602 108.169 97.191C108.169 99.5531 107.395 101.467 105.826 102.954C104.258 104.44 102.058 105.173 99.2057 105.173C98.5131 105.173 97.7593 105.132 96.9445 105.031C96.1297 104.929 95.2538 104.786 94.3371 104.583L94.3167 104.603ZM94.3167 103.381C95.0704 103.524 95.7426 103.626 96.3334 103.707C96.9241 103.789 97.413 103.809 97.8205 103.809C99.3075 103.809 100.571 103.239 101.65 102.098C102.73 100.958 103.259 99.4716 103.259 97.639C103.259 96.3765 102.995 95.2158 102.485 94.1366C101.976 93.0574 101.243 92.2632 100.306 91.7135C99.3686 91.1637 98.289 90.9193 97.1075 90.9193C96.3741 90.9193 95.4575 91.0618 94.3167 91.3266V103.381Z" fill="white"/>
<path d="M119.047 97.924C118.171 97.924 117.499 98.0055 117.01 98.148C116.521 98.2906 116.175 98.5349 115.951 98.8403C115.727 99.1458 115.584 99.5327 115.543 100.021C115.503 100.51 115.482 101.08 115.482 101.752V115.008C115.482 115.334 115.482 115.619 115.503 115.843C115.503 116.088 115.584 116.271 115.666 116.413C115.767 116.556 115.91 116.658 116.134 116.719C116.358 116.78 116.643 116.821 117.03 116.821H121.512C121.858 116.821 122.245 116.8 122.693 116.739C123.142 116.698 123.631 116.515 124.14 116.23C124.649 115.945 125.179 115.497 125.729 114.886C126.279 114.275 126.808 113.42 127.338 112.3H128.112L126.258 118.144H108.78V117.37C109.534 117.37 110.125 117.269 110.512 117.045C110.919 116.821 111.225 116.556 111.408 116.23C111.591 115.904 111.714 115.517 111.734 115.09C111.754 114.662 111.775 114.255 111.775 113.848V101.487C111.775 101.019 111.775 100.571 111.734 100.123C111.714 99.6956 111.591 99.3087 111.408 98.9625C111.225 98.6367 110.919 98.372 110.512 98.1684C110.104 97.9851 109.534 97.8833 108.78 97.8833V97.1299H119.088V97.8833L119.047 97.924Z" fill="white"/>
<path d="M128.601 107.291C128.601 105.805 128.865 104.42 129.395 103.117C129.925 101.813 130.658 100.693 131.615 99.7161C132.573 98.7387 133.693 97.9852 134.997 97.4355C136.301 96.8857 137.747 96.6006 139.316 96.6006C140.884 96.6006 142.371 96.8857 143.695 97.4355C145.019 98.0056 146.16 98.7794 147.097 99.7772C148.055 100.775 148.788 101.956 149.318 103.3C149.847 104.644 150.112 106.13 150.112 107.719C150.112 109.307 149.847 110.692 149.318 112.035C148.788 113.379 148.034 114.54 147.097 115.538C146.14 116.536 145.019 117.309 143.716 117.88C142.412 118.45 140.966 118.735 139.417 118.735C138.704 118.735 137.951 118.653 137.136 118.511C136.321 118.368 135.527 118.104 134.712 117.757C133.917 117.411 133.143 116.943 132.41 116.373C131.677 115.803 131.025 115.09 130.475 114.235C129.904 113.379 129.456 112.382 129.13 111.241C128.804 110.081 128.621 108.757 128.621 107.271L128.601 107.291ZM132.777 107.596C132.777 107.882 132.777 108.329 132.817 108.94C132.838 109.551 132.919 110.223 133.041 110.977C133.164 111.73 133.347 112.483 133.612 113.278C133.877 114.072 134.243 114.784 134.732 115.436C135.221 116.088 135.832 116.617 136.586 117.045C137.34 117.472 138.277 117.676 139.356 117.676C140.436 117.676 141.373 117.472 142.127 117.045C142.88 116.617 143.512 116.088 144.001 115.436C144.49 114.784 144.877 114.072 145.142 113.278C145.406 112.483 145.59 111.73 145.712 110.977C145.834 110.244 145.895 109.572 145.916 108.961C145.936 108.35 145.956 107.922 145.956 107.637C145.956 107.148 145.956 106.578 145.895 105.886C145.855 105.194 145.773 104.501 145.631 103.768C145.488 103.035 145.264 102.302 144.999 101.589C144.714 100.877 144.327 100.225 143.838 99.655C143.349 99.0848 142.758 98.6165 142.025 98.2703C141.292 97.9242 140.416 97.7409 139.397 97.7409C138.46 97.7409 137.645 97.8834 136.953 98.1889C136.26 98.4943 135.669 98.9016 135.18 99.4106C134.691 99.9197 134.284 100.51 133.978 101.182C133.673 101.854 133.428 102.546 133.245 103.28C133.062 104.013 132.94 104.746 132.878 105.499C132.817 106.253 132.777 106.965 132.777 107.617V107.596Z" fill="white"/>
<path d="M174.435 97.171V97.9244C173.599 97.9244 172.968 98.0262 172.52 98.2095C172.072 98.3928 171.725 98.6778 171.501 99.024C171.277 99.3702 171.155 99.7774 171.114 100.266C171.074 100.734 171.053 101.264 171.053 101.834V110.162C171.053 110.997 170.992 111.852 170.87 112.708C170.748 113.563 170.524 114.296 170.177 114.866C169.709 115.681 169.138 116.332 168.486 116.841C167.835 117.35 167.142 117.737 166.429 118.022C165.716 118.307 165.003 118.491 164.31 118.593C163.618 118.694 162.966 118.735 162.396 118.735C159.401 118.735 157.181 118.083 155.694 116.76C154.227 115.436 153.473 113.482 153.473 110.875V101.793C153.473 101.101 153.432 100.531 153.371 100.022C153.29 99.5331 153.147 99.1258 152.903 98.8C152.658 98.4742 152.332 98.2502 151.884 98.0873C151.436 97.9448 150.825 97.8633 150.071 97.8633V97.1099H160.481V97.8633C159.707 97.8633 159.096 97.9448 158.647 98.0873C158.199 98.2299 157.853 98.4742 157.629 98.7797C157.405 99.0851 157.262 99.4923 157.201 99.9811C157.14 100.47 157.12 101.06 157.12 101.773V110.855C157.12 111.038 157.12 111.323 157.14 111.71C157.14 112.097 157.221 112.524 157.323 112.993C157.425 113.461 157.588 113.95 157.833 114.439C158.057 114.927 158.383 115.375 158.81 115.782C159.238 116.19 159.768 116.516 160.42 116.78C161.071 117.045 161.866 117.167 162.823 117.167C163.312 117.167 163.822 117.126 164.372 117.025C164.922 116.923 165.431 116.78 165.94 116.597C166.449 116.414 166.918 116.149 167.366 115.844C167.814 115.538 168.181 115.151 168.486 114.683C168.751 114.296 168.955 113.909 169.098 113.522C169.261 113.135 169.362 112.748 169.444 112.362C169.525 111.975 169.566 111.588 169.586 111.181C169.607 110.794 169.627 110.386 169.627 109.979V100.958C169.627 100.51 169.586 100.083 169.505 99.696C169.423 99.3091 169.261 98.9833 169.036 98.6982C168.812 98.4131 168.486 98.2095 168.059 98.0466C167.651 97.8837 167.101 97.8022 166.409 97.8022V97.0488H174.414L174.435 97.171Z" fill="white"/>
<path d="M192.524 97.1709L192.829 102.16H192.076C191.994 101.386 191.831 100.755 191.628 100.286C191.424 99.818 191.139 99.4515 190.813 99.1868C190.487 98.9221 190.12 98.7592 189.692 98.6777C189.265 98.5963 188.816 98.5556 188.327 98.5556H185.17V113.766C185.17 114.296 185.211 114.785 185.292 115.233C185.374 115.681 185.516 116.067 185.761 116.393C185.985 116.719 186.311 116.963 186.718 117.147C187.126 117.33 187.676 117.411 188.348 117.411V118.185H178.366V117.411C179.1 117.411 179.67 117.33 180.077 117.147C180.505 116.963 180.811 116.719 181.035 116.393C181.238 116.067 181.381 115.681 181.442 115.233C181.503 114.785 181.524 114.296 181.524 113.766V98.5556H178.407C177.674 98.5556 177.083 98.637 176.614 98.7999C176.146 98.9628 175.779 99.1868 175.494 99.4922C175.209 99.7977 175.005 100.185 174.883 100.633C174.761 101.081 174.679 101.59 174.638 102.18H173.864L174.149 97.1913H192.524V97.1709Z" fill="white"/>
<path d="M188.816 118.165V117.391C189.101 117.391 189.387 117.35 189.651 117.289C189.916 117.248 190.201 117.085 190.487 116.841C190.772 116.597 191.077 116.23 191.383 115.721C191.689 115.232 192.055 114.52 192.422 113.603L199.429 96.5801H199.776L207.557 114.642C207.843 115.293 208.128 115.802 208.393 116.169C208.657 116.536 208.943 116.8 209.207 116.983C209.493 117.167 209.778 117.269 210.063 117.309C210.348 117.35 210.674 117.37 211 117.37V118.144H202.261V117.37C202.404 117.37 202.587 117.37 202.811 117.33C203.035 117.309 203.259 117.269 203.483 117.187C203.707 117.126 203.891 117.004 204.033 116.861C204.196 116.719 204.278 116.515 204.278 116.25C204.278 116.006 204.217 115.741 204.115 115.436C204.013 115.13 203.85 114.764 203.646 114.336L202.465 111.628H194.948L193.807 114.336C193.685 114.662 193.583 114.947 193.522 115.171C193.461 115.416 193.44 115.64 193.44 115.864C193.44 116.149 193.522 116.393 193.665 116.576C193.807 116.759 193.99 116.922 194.215 117.024C194.439 117.126 194.642 117.207 194.846 117.269C195.07 117.309 195.233 117.35 195.355 117.35V118.124H188.796L188.816 118.165ZM195.376 110.386H201.915L198.553 102.607L195.376 110.386Z" fill="white"/>
<path d="M223.508 103.504H222.734C222.591 102.893 222.388 102.261 222.123 101.61C221.858 100.958 221.41 100.266 220.819 99.5532C220.31 98.9423 219.739 98.4943 219.088 98.1889C218.436 97.8834 217.804 97.7409 217.213 97.7409C216.725 97.7409 216.317 97.8224 215.951 97.9649C215.584 98.1074 215.299 98.3111 215.054 98.5554C214.81 98.7998 214.626 99.0848 214.504 99.431C214.382 99.7568 214.321 100.103 214.321 100.449C214.321 100.999 214.443 101.508 214.688 101.956C214.932 102.404 215.299 102.852 215.747 103.259C216.195 103.666 216.765 104.094 217.417 104.501C218.069 104.909 218.802 105.357 219.617 105.825C220.289 106.212 220.941 106.639 221.573 107.087C222.204 107.535 222.775 108.044 223.264 108.615C223.752 109.185 224.16 109.796 224.445 110.468C224.73 111.14 224.893 111.893 224.893 112.748C224.893 113.379 224.771 114.031 224.527 114.744C224.282 115.436 223.875 116.088 223.345 116.678C222.815 117.269 222.123 117.757 221.267 118.144C220.412 118.531 219.414 118.735 218.252 118.735C217.702 118.735 217.213 118.674 216.745 118.572C216.276 118.45 215.849 118.328 215.462 118.205C215.054 118.083 214.688 117.961 214.362 117.839C214.036 117.717 213.71 117.676 213.425 117.676C213.16 117.676 212.956 117.717 212.773 117.798C212.589 117.88 212.447 117.961 212.325 118.083C212.202 118.185 212.1 118.307 212.019 118.429C211.937 118.552 211.876 118.653 211.815 118.755H211.062V111.669H211.815C212.019 112.626 212.304 113.441 212.671 114.092C213.017 114.764 213.404 115.294 213.832 115.721C214.239 116.149 214.667 116.475 215.075 116.719C215.502 116.963 215.889 117.126 216.256 117.228C216.623 117.33 216.928 117.391 217.193 117.411C217.458 117.432 217.621 117.452 217.702 117.452C218.212 117.452 218.721 117.391 219.21 117.248C219.699 117.106 220.126 116.902 220.493 116.637C220.86 116.373 221.165 116.027 221.389 115.599C221.614 115.171 221.736 114.683 221.736 114.092C221.736 113.603 221.634 113.155 221.41 112.728C221.186 112.3 220.88 111.873 220.473 111.465C220.065 111.038 219.576 110.63 218.986 110.223C218.395 109.816 217.743 109.388 216.989 108.94C216.276 108.533 215.584 108.105 214.891 107.658C214.199 107.21 213.567 106.721 213.017 106.191C212.467 105.662 212.019 105.051 211.673 104.399C211.326 103.728 211.163 102.974 211.163 102.099C211.163 101.386 211.286 100.693 211.53 100.042C211.774 99.3699 212.141 98.7998 212.65 98.2907C213.16 97.7816 213.75 97.3744 214.484 97.0893C215.217 96.8042 216.073 96.6413 217.03 96.6413C217.601 96.6413 218.11 96.682 218.538 96.7839C218.986 96.8857 219.373 96.9875 219.719 97.1097C220.065 97.2318 220.371 97.3336 220.636 97.4355C220.901 97.5373 221.165 97.578 221.41 97.578C221.736 97.578 221.98 97.4965 222.164 97.3133C222.347 97.13 222.49 96.906 222.652 96.6006H223.467V103.504H223.508Z" fill="white"/>
<path d="M78.3047 115.884L79.3844 131.808H78.3047C76.8788 127.043 74.8417 123.622 72.1935 121.525C69.5453 119.428 66.3675 118.389 62.66 118.389C59.5433 118.389 56.7321 119.183 54.2265 120.751C51.7209 122.319 49.7449 124.844 48.2986 128.285C46.8523 131.747 46.1393 136.023 46.1393 141.175C46.1393 145.41 46.8116 149.076 48.1764 152.191C49.5412 155.307 51.5783 157.689 54.308 159.338C57.0377 160.988 60.1544 161.823 63.6582 161.823C66.6934 161.823 69.3823 161.171 71.7046 159.868C74.0269 158.565 76.5936 155.979 79.364 152.11L80.4437 152.802C78.101 156.976 75.351 160.01 72.2139 161.945C69.0768 163.879 65.3693 164.836 61.0507 164.836C53.2895 164.836 47.2801 161.965 43.0226 156.203C39.8448 151.926 38.2559 146.876 38.2559 141.073C38.2559 136.41 39.2948 132.114 41.393 128.184C43.4911 124.274 46.3634 121.24 50.0505 119.081C53.7172 116.923 57.7303 115.844 62.0896 115.844C65.4712 115.844 68.812 116.679 72.112 118.328C73.0898 118.837 73.762 119.081 74.1898 119.081C74.8213 119.081 75.351 118.857 75.8195 118.43C76.4102 117.819 76.838 116.943 77.1028 115.844H78.3047V115.884Z" fill="white"/>
<path d="M80.4434 163.777V162.413C80.9526 162.392 81.4415 162.331 81.91 162.25C82.3989 162.168 82.8878 161.904 83.3767 161.476C83.8656 161.049 84.4156 160.397 84.9657 159.521C85.5157 158.646 86.1472 157.404 86.8194 155.775L99.2252 125.658H99.8363L113.587 157.628C114.096 158.788 114.585 159.684 115.053 160.336C115.542 160.967 116.011 161.456 116.5 161.782C116.988 162.107 117.498 162.291 118.007 162.352C118.516 162.413 119.066 162.454 119.657 162.454V163.818H104.196V162.454C104.44 162.454 104.766 162.454 105.173 162.392C105.581 162.352 105.968 162.27 106.355 162.148C106.742 162.026 107.068 161.822 107.333 161.558C107.618 161.293 107.74 160.926 107.74 160.478C107.74 160.051 107.638 159.562 107.455 159.033C107.272 158.503 106.986 157.852 106.64 157.098L104.562 152.293H91.2602L89.2639 157.098C89.0398 157.668 88.8768 158.177 88.775 158.585C88.6731 158.992 88.6324 159.399 88.6324 159.806C88.6324 160.315 88.775 160.723 89.0398 161.069C89.3046 161.415 89.6306 161.68 89.9972 161.863C90.3843 162.046 90.751 162.189 91.138 162.291C91.525 162.392 91.8102 162.413 92.0547 162.413V163.777H80.4434ZM92.0343 150.012H103.605L97.677 136.267L92.0547 150.012H92.0343Z" fill="white"/>
<path d="M133.631 126.636C134.202 126.636 135.037 126.636 136.096 126.697C137.156 126.738 138.296 126.839 139.539 127.043C140.782 127.226 142.024 127.552 143.328 127.98C144.632 128.407 145.772 129.039 146.832 129.833C147.871 130.627 148.726 131.645 149.378 132.867C150.03 134.109 150.356 135.616 150.356 137.408C150.356 139.2 149.969 140.767 149.195 142.071C148.421 143.374 147.443 144.433 146.261 145.247C145.08 146.062 143.776 146.673 142.33 147.039C140.883 147.406 139.498 147.609 138.174 147.609C136.585 147.609 135.18 147.507 133.937 147.324C132.694 147.141 131.472 146.897 130.27 146.632V156.487C130.27 157.424 130.331 158.259 130.433 159.012C130.535 159.766 130.82 160.397 131.268 160.926C131.717 161.456 132.368 161.843 133.224 162.087C134.1 162.352 135.281 162.454 136.789 162.413V163.777H117.314V162.413C118.17 162.413 118.985 162.372 119.779 162.311C120.553 162.25 121.246 162.046 121.837 161.68C122.428 161.313 122.896 160.743 123.242 159.949C123.589 159.155 123.752 158.035 123.752 156.569V134.435C123.752 133.274 123.69 132.297 123.568 131.462C123.446 130.647 123.161 129.975 122.733 129.466C122.305 128.957 121.653 128.57 120.798 128.326C119.942 128.081 118.781 127.959 117.314 127.959V126.636H133.611H133.631ZM130.27 144.351C130.474 144.453 130.759 144.575 131.167 144.697C131.574 144.82 132.002 144.942 132.47 145.044C132.939 145.145 133.468 145.227 133.998 145.308C134.528 145.39 135.057 145.43 135.567 145.43C136.646 145.43 137.644 145.227 138.561 144.799C139.478 144.392 140.252 143.801 140.904 143.068C141.556 142.335 142.045 141.439 142.411 140.401C142.778 139.362 142.961 138.242 142.961 137C142.961 135.412 142.717 134.088 142.228 133.009C141.739 131.93 141.107 131.095 140.333 130.464C139.559 129.833 138.724 129.385 137.787 129.12C136.85 128.855 135.954 128.713 135.098 128.713C134.161 128.713 133.244 128.753 132.348 128.835C131.452 128.916 130.759 129.059 130.25 129.242V144.351H130.27Z" fill="white"/>
<path d="M167.875 163.777H150.723V162.413C151.904 162.413 152.841 162.291 153.554 162.006C154.267 161.741 154.797 161.354 155.163 160.825C155.53 160.295 155.774 159.644 155.876 158.87C155.999 158.096 156.039 157.2 156.039 156.182V134.312C156.039 133.498 156.019 132.724 155.958 131.971C155.897 131.217 155.713 130.545 155.367 129.955C155.021 129.364 154.491 128.876 153.778 128.509C153.065 128.143 152.026 127.959 150.702 127.959V126.636H167.854V127.959C166.51 127.959 165.491 128.143 164.778 128.509C164.065 128.876 163.536 129.344 163.189 129.955C162.843 130.545 162.66 131.217 162.599 131.971C162.538 132.724 162.517 133.498 162.517 134.312V156.182C162.517 157.2 162.578 158.076 162.68 158.87C162.782 159.644 163.026 160.316 163.393 160.825C163.76 161.354 164.289 161.761 165.002 162.006C165.715 162.27 166.652 162.413 167.834 162.413V163.777H167.875Z" fill="white"/>
<path d="M201.059 126.636L201.589 135.474H200.264C200.122 134.089 199.857 132.99 199.47 132.155C199.083 131.32 198.614 130.689 198.024 130.22C197.433 129.772 196.781 129.467 196.048 129.304C195.314 129.161 194.5 129.08 193.644 129.08H188.042V155.979C188.042 156.916 188.103 157.771 188.246 158.565C188.388 159.359 188.653 160.031 189.061 160.601C189.468 161.172 190.038 161.599 190.751 161.925C191.485 162.251 192.442 162.393 193.624 162.393V163.758H175.962V162.393C177.246 162.393 178.264 162.23 178.997 161.925C179.751 161.62 180.301 161.172 180.688 160.601C181.075 160.031 181.299 159.359 181.401 158.565C181.503 157.771 181.544 156.916 181.544 155.979V129.08H176.023C174.74 129.08 173.681 129.222 172.866 129.487C172.051 129.772 171.379 130.18 170.89 130.709C170.381 131.259 170.034 131.91 169.81 132.705C169.586 133.499 169.444 134.415 169.382 135.433H168.018L168.506 126.596H201.018L201.059 126.636Z" fill="white"/>
<path d="M194.519 163.777V162.413C195.029 162.392 195.518 162.331 195.986 162.25C196.455 162.168 196.964 161.904 197.453 161.476C197.962 161.049 198.492 160.397 199.042 159.521C199.592 158.646 200.223 157.404 200.895 155.775L213.301 125.658H213.912L227.663 157.628C228.172 158.788 228.661 159.684 229.129 160.336C229.598 160.967 230.087 161.456 230.576 161.782C231.064 162.087 231.574 162.291 232.083 162.352C232.592 162.413 233.142 162.454 233.733 162.454V163.818H218.272V162.454C218.516 162.454 218.842 162.454 219.249 162.392C219.657 162.352 220.044 162.27 220.431 162.148C220.818 162.026 221.144 161.822 221.409 161.558C221.694 161.293 221.816 160.926 221.816 160.478C221.816 160.051 221.714 159.562 221.531 159.033C221.348 158.503 221.062 157.852 220.716 157.098L218.638 152.293H205.336L203.34 157.098C203.116 157.668 202.953 158.177 202.851 158.585C202.749 158.992 202.708 159.399 202.708 159.806C202.708 160.315 202.851 160.723 203.095 161.069C203.36 161.415 203.686 161.68 204.053 161.863C204.44 162.046 204.807 162.189 205.194 162.291C205.581 162.392 205.866 162.413 206.11 162.413V163.777H194.499H194.519ZM206.131 150.012H217.701L211.773 136.267L206.151 150.012H206.131Z" fill="white"/>
<path d="M271.582 150.827L272.723 151.071L268.71 163.777H232.45V162.495H234.202C236.178 162.495 237.604 161.843 238.46 160.56C238.948 159.827 239.193 158.117 239.193 155.449V125.231C239.193 122.299 238.867 120.486 238.215 119.733C237.319 118.715 235.974 118.206 234.202 118.206H232.45V116.923H253.656V118.206C251.171 118.206 249.419 118.409 248.421 118.898C247.423 119.387 246.73 119.998 246.363 120.731C245.997 121.464 245.813 123.235 245.813 126.005V155.429C245.813 157.343 245.997 158.646 246.363 159.359C246.649 159.847 247.056 160.194 247.647 160.438C248.217 160.662 250.01 160.784 253.045 160.784H256.467C260.053 160.784 262.579 160.519 264.025 159.99C265.471 159.46 266.795 158.524 267.997 157.18C269.199 155.836 270.401 153.718 271.582 150.806V150.827Z" fill="white"/>
<path d="M311 180.006C311 180.006 213.73 181.9 155.51 181.9C97.2907 181.9 0.0205078 180.006 0.0205078 180.006C0.0205078 180.006 97.2907 178.112 155.51 178.112C213.73 178.112 311 180.006 311 180.006Z" fill="white"/>
<path d="M155.49 80.6359C174.143 80.6359 189.264 62.758 189.264 40.7047C189.264 18.6513 174.143 0.773438 155.49 0.773438C136.836 0.773438 121.715 18.6513 121.715 40.7047C121.715 62.758 136.836 80.6359 155.49 80.6359Z" stroke="white" stroke-width="0.75" stroke-miterlimit="10"/>
<path d="M155.489 77.4595C172.309 77.4595 185.944 61.0039 185.944 40.7048C185.944 20.4058 172.309 3.9502 155.489 3.9502C138.67 3.9502 125.035 20.4058 125.035 40.7048C125.035 61.0039 138.67 77.4595 155.489 77.4595Z" fill="white"/>
<path d="M175.107 18.1631L175.881 33.4962H175.107C174.088 28.9146 172.622 25.5955 170.727 23.5796C168.833 21.5637 166.551 20.5455 163.903 20.5455C161.683 20.5455 159.666 21.2989 157.873 22.8261C156.081 24.3533 154.655 26.7765 153.636 30.0956C152.618 33.4147 152.088 37.5484 152.088 42.4965C152.088 46.569 152.577 50.1121 153.555 53.1054C154.532 56.0988 155.999 58.3997 157.934 59.988C159.87 61.5763 162.11 62.3908 164.616 62.3908C166.796 62.3908 168.711 61.7596 170.381 60.5175C172.051 59.2753 173.885 56.7707 175.881 53.0444L176.655 53.7163C174.964 57.7278 173.009 60.66 170.768 62.5334C168.527 64.4067 165.859 65.3231 162.783 65.3231C157.221 65.3231 152.923 62.5537 149.868 57.0151C147.586 52.8815 146.445 48.0351 146.445 42.4558C146.445 37.9556 147.199 33.822 148.686 30.0549C150.173 26.2878 152.251 23.3556 154.879 21.2989C157.507 19.2423 160.379 18.1834 163.496 18.1834C165.92 18.1834 168.303 18.9776 170.666 20.5862C171.359 21.0749 171.848 21.3193 172.153 21.3193C172.601 21.3193 172.988 21.1157 173.314 20.6881C173.742 20.0975 174.048 19.2627 174.231 18.1834H175.087L175.107 18.1631Z" fill="#16335A"/>
<path d="M146.017 60.6398C145.447 59.9474 145.141 58.1759 145.141 55.3455V21.5027C146.791 21.0751 148.136 20.8715 149.195 20.8715C150.743 20.8715 152.149 21.2176 153.392 21.8896C153.779 21.5231 154.308 21.0751 155.042 20.566C155.938 19.9144 156.61 19.5479 157.119 19.3239C154.98 18.5705 152.149 18.1836 148.584 18.1836H133.204V19.4257H134.773C136.362 19.4257 137.563 19.9144 138.358 20.8918C138.908 21.5842 139.193 23.3557 139.193 26.1861V55.3658C139.193 57.9519 138.989 59.5809 138.582 60.2529C137.828 61.495 136.545 62.1263 134.773 62.1263H133.204V63.3684H151.191V62.1263H149.582C147.993 62.1263 146.812 61.6375 146.017 60.6601V60.6398Z" fill="#16335A"/>
<path d="M162.945 23.6205C162.334 22.806 161.642 22.0933 160.908 21.4824C160.195 21.8693 158.932 22.5616 158.117 23.1929C157.364 23.7834 156.814 24.4961 156.529 24.9644C156.692 25.2699 156.875 25.555 157.017 25.8808C157.751 27.5505 158.138 29.3628 158.138 31.3176C158.138 34.1684 157.364 36.4694 155.795 38.2613C154.41 39.8496 152.76 40.7048 150.906 40.8677V43.0465C151.354 43.0669 151.803 43.0872 152.23 43.0872C156.366 43.0872 159.543 41.9265 161.805 39.6256C164.066 37.3246 165.186 34.3109 165.186 30.6253C165.186 27.917 164.453 25.5753 162.966 23.6001L162.945 23.6205Z" fill="#16335A"/>
</g>
<defs>
<clipPath id="clip0_60_5">
<rect width="311" height="201" fill="white"/>
</clipPath>
</defs>
</svg>
